<svg width="69" height="68" viewBox="0 0 69 68" fill="none" xmlns="http://www.w3.org/2000/svg">
    <g clip-path="url(#clip0_2135_1764)">
    <path d="M61.5137 55.424L53.9373 55.963L52.4941 63.3289L45.2784 61.2629L41.4 67.7305L35.2667 63.2391L29.4039 68L25.1647 61.712L18.0392 64.2272L16.2353 56.8613L8.65882 56.7715L9.47059 49.2259L2.3451 46.6209L5.77255 39.7939L0 34.8534L5.50196 29.6433L1.80392 23.0859L8.74902 20.0317L7.48627 12.576L15.0627 12.1268L16.5059 4.67107L23.8118 6.82695L27.6902 0.269485L33.7333 4.7609L39.6863 0L43.8353 6.28798L51.051 3.77279L52.8549 11.1387L60.4314 11.2285L59.5294 18.7741L66.6549 21.3791L63.3176 28.2061L69 33.1466L63.5882 38.3567L67.2863 44.9141L60.3412 47.9683L61.5137 55.424Z" fill="url(#paint0_linear_2135_1764)"/>
    <path d="M8.92944 34.045C8.92944 48.148 20.3843 59.4664 34.4549 59.4664C48.6157 59.4664 59.9804 48.0582 59.9804 34.045C59.9804 19.9419 48.5255 8.62357 34.4549 8.62357C20.3843 8.53375 8.92944 19.9419 8.92944 34.045Z" fill="url(#paint1_radial_2135_1764)"/>
    <path d="M38.4234 31.3503C31.9293 26.0504 29.4038 18.0557 32.741 13.4744C36.0783 8.89321 44.1057 9.34235 50.6901 14.6422C57.1842 19.9421 59.7097 27.9368 56.3724 32.518C52.945 37.1891 44.9175 36.6501 38.4234 31.3503Z" fill="url(#paint2_radial_2135_1764)"/>
    <path opacity="0.4" d="M11.9058 39.6148C12.8078 36.8302 17.1372 37.9979 21.7372 42.2199C26.247 46.4418 29.3137 52.1908 28.4117 55.0653C27.5098 57.85 23.1803 56.6822 18.5803 52.4603C14.0705 48.1485 11.0941 42.3995 11.9058 39.6148Z" fill="url(#paint3_radial_2135_1764)"/>
    </g>
    <defs>
    <linearGradient id="paint0_linear_2135_1764" x1="65.9864" y1="-1.01955" x2="5.59738" y2="66.7396" gradientUnits="userSpaceOnUse">
    <stop stop-color="#FFBA24"/>
    <stop offset="1" stop-color="#FF5500"/>
    </linearGradient>
    <radialGradient id="paint1_radial_2135_1764" cx="0" cy="0" r="1" gradientUnits="userSpaceOnUse" gradientTransform="translate(40.3622 18.0415) rotate(180) scale(48.5316 48.3337)">
    <stop stop-color="#FFF4C3"/>
    <stop offset="0.1559" stop-color="#FFE036"/>
    <stop offset="1" stop-color="#FA761C"/>
    </radialGradient>
    <radialGradient id="paint2_radial_2135_1764" cx="0" cy="0" r="1" gradientUnits="userSpaceOnUse" gradientTransform="translate(44.5235 23.0151) rotate(126.146) scale(10.3648 15.1392)">
    <stop stop-color="white"/>
    <stop offset="1" stop-color="white" stop-opacity="0"/>
    </radialGradient>
    <radialGradient id="paint3_radial_2135_1764" cx="0" cy="0" r="1" gradientUnits="userSpaceOnUse" gradientTransform="translate(20.1567 47.3386) rotate(-136.906) scale(11.2793 4.78951)">
    <stop stop-color="white"/>
    <stop offset="1" stop-color="white" stop-opacity="0"/>
    </radialGradient>
    <clipPath id="clip0_2135_1764">
    <rect width="69" height="68" fill="white"/>
    </clipPath>
    </defs>
</svg>