<svg width="105" height="104" viewBox="0 0 105 104" fill="none" xmlns="http://www.w3.org/2000/svg">
    <g clip-path="url(#clip0_2135_1893)">
    <path d="M98.8016 62.1781L92.3148 62.6831L91.0985 68.946L84.9158 67.1278L81.6724 72.6836L76.4018 68.845L71.4354 72.9866L67.7866 67.6328L61.7052 69.7541L60.1849 63.4912L53.6981 63.3902L54.4076 56.9253L48.3262 54.703L51.2655 48.8442L46.2991 44.7026L50.9615 40.2579L47.8194 34.6011L53.7994 31.9748L52.7859 25.6108L59.1713 25.2068L60.3876 18.8429L66.5703 20.6611L69.9151 15.2064L75.1856 18.9439L80.152 14.9033L83.6995 20.2571L89.8822 18.1358L91.4025 24.3987L97.8893 24.4997L97.1799 30.8636L103.16 33.1869L100.322 38.9447L105.187 43.1873L100.525 47.632L103.667 53.2888L97.788 55.8141L98.8016 62.1781Z" fill="url(#paint0_linear_2135_1893)"/>
    <path d="M75.7938 65.6129C87.8289 65.6129 97.5853 55.8894 97.5853 43.8948C97.5853 31.9003 87.8289 22.1768 75.7938 22.1768C63.7586 22.1768 54.0022 31.9003 54.0022 43.8948C54.0022 55.8894 63.7586 65.6129 75.7938 65.6129Z" fill="url(#paint1_radial_2135_1893)"/>
    <path d="M79.1384 41.6719C73.5638 37.2272 71.4354 30.3583 74.2733 26.4187C77.1113 22.4791 84.0035 22.8832 89.5781 27.4288C95.1527 31.8735 97.2812 38.7424 94.4432 42.682C91.5039 46.6216 84.6117 46.2175 79.1384 41.6719Z" fill="url(#paint2_radial_2135_1893)"/>
    <path opacity="0.4" d="M56.5361 48.7433C57.2456 46.319 60.9958 47.3291 64.8473 50.9656C68.6988 54.6021 71.2327 59.4508 70.5233 61.8752C69.8138 64.2995 66.0636 63.2894 62.2121 59.6529C58.3605 56.0163 55.7253 51.1676 56.5361 48.7433Z" fill="url(#paint3_radial_2135_1893)"/>
    <path d="M73.9695 52.6818C72.9559 38.5397 61.0972 27.3271 46.7047 27.3271C32.2107 27.3271 20.3521 38.5397 19.4399 52.6818C8.59476 53.2878 -0.0205078 62.1771 -0.0205078 72.9857C-0.0205078 84.1982 9.10154 93.2895 20.3521 93.2895H72.9559C84.2064 93.2895 93.3285 84.1982 93.3285 72.9857C93.3285 62.1771 84.7132 53.2878 73.9695 52.6818Z" fill="url(#paint4_radial_2135_1893)"/>
    <path d="M73.9695 52.6818C72.9559 38.5397 61.0972 27.3271 46.7047 27.3271C32.2107 27.3271 20.3521 38.5397 19.4399 52.6818C8.59476 53.2878 -0.0205078 62.1771 -0.0205078 72.9857C-0.0205078 84.1982 9.10154 93.2895 20.3521 93.2895H72.9559C84.2064 93.2895 93.3285 84.1982 93.3285 72.9857C93.3285 62.1771 84.7132 53.2878 73.9695 52.6818Z" fill="url(#paint5_radial_2135_1893)"/>
    <path d="M46.7047 55.2076C39.0016 49.0457 36.0623 39.5503 40.0152 34.0956C43.9681 28.6408 53.4955 29.2469 61.0972 35.4087C68.8003 41.5706 71.7396 51.066 67.7868 56.5208C63.8339 62.0765 54.3064 61.4705 46.7047 55.2076Z" fill="url(#paint6_radial_2135_1893)"/>
    <path opacity="0.4" d="M74.0709 73.5917C67.9896 68.743 65.6584 61.2679 68.8004 57.0253C71.9425 52.7827 79.3415 53.1867 85.4228 58.1365C91.5042 62.9851 93.8354 70.4602 90.6933 74.7028C87.5513 78.9454 80.1523 78.4403 74.0709 73.5917Z" fill="url(#paint7_radial_2135_1893)"/>
    <path opacity="0.2" d="M14.5747 74.2991C10.115 67.3291 4.94582 63.9956 3.02005 66.824C1.09428 69.6524 3.12141 77.5315 7.58108 84.5015C12.0407 91.4715 17.2099 94.805 19.1357 91.9766C21.0614 89.0472 19.0343 81.168 14.5747 74.2991Z" fill="url(#paint8_radial_2135_1893)"/>
    </g>
    <defs>
    <linearGradient id="paint0_linear_2135_1893" x1="102.619" y1="14.0328" x2="51.0703" y2="71.8313" gradientUnits="userSpaceOnUse">
    <stop stop-color="#FFBA24"/>
    <stop offset="1" stop-color="#FF5500"/>
    </linearGradient>
    <radialGradient id="paint1_radial_2135_1893" cx="0" cy="0" r="1" gradientUnits="userSpaceOnUse" gradientTransform="translate(80.7627 30.3021) rotate(180) scale(41.3945 41.2549)">
    <stop stop-color="#FFF4C3"/>
    <stop offset="0.1559" stop-color="#FFE036"/>
    <stop offset="1" stop-color="#FA761C"/>
    </radialGradient>
    <radialGradient id="paint2_radial_2135_1893" cx="0" cy="0" r="1" gradientUnits="userSpaceOnUse" gradientTransform="translate(84.3124 34.5468) rotate(126.127) scale(8.84469 12.9161)">
    <stop stop-color="white"/>
    <stop offset="1" stop-color="white" stop-opacity="0"/>
    </radialGradient>
    <radialGradient id="paint3_radial_2135_1893" cx="0" cy="0" r="1" gradientUnits="userSpaceOnUse" gradientTransform="translate(63.5296 55.3096) rotate(-136.886) scale(9.62391 4.08676)">
    <stop stop-color="white"/>
    <stop offset="1" stop-color="white" stop-opacity="0"/>
    </radialGradient>
    <radialGradient id="paint4_radial_2135_1893" cx="0" cy="0" r="1" gradientUnits="userSpaceOnUse" gradientTransform="translate(58.4321 41.2387) rotate(180) scale(71.2104 51.8438)">
    <stop stop-color="white"/>
    <stop offset="0.198" stop-color="#D5F3FF"/>
    <stop offset="1" stop-color="#85BCF1"/>
    </radialGradient>
    <radialGradient id="paint5_radial_2135_1893" cx="0" cy="0" r="1" gradientUnits="userSpaceOnUse" gradientTransform="translate(68.5226 47.1904) scale(60.5368 60.3327)">
    <stop stop-color="#FFE036"/>
    <stop offset="0.00517282" stop-color="#FFDF36" stop-opacity="0.9933"/>
    <stop offset="0.1623" stop-color="#FDB92C" stop-opacity="0.789"/>
    <stop offset="0.319" stop-color="#FC9C25" stop-opacity="0.5851"/>
    <stop offset="0.4735" stop-color="#FB8720" stop-opacity="0.3841"/>
    <stop offset="0.6247" stop-color="#FA7A1D" stop-opacity="0.1875"/>
    <stop offset="0.7688" stop-color="#FA761C" stop-opacity="0"/>
    </radialGradient>
    <radialGradient id="paint6_radial_2135_1893" cx="0" cy="0" r="1" gradientUnits="userSpaceOnUse" gradientTransform="translate(53.8716 45.3754) rotate(126.127) scale(12.2289 17.858)">
    <stop stop-color="white"/>
    <stop offset="1" stop-color="white" stop-opacity="0"/>
    </radialGradient>
    <radialGradient id="paint7_radial_2135_1893" cx="0" cy="0" r="1" gradientUnits="userSpaceOnUse" gradientTransform="translate(79.7753 65.8392) rotate(126.127) scale(9.61048 14.0344)">
    <stop stop-color="white"/>
    <stop offset="1" stop-color="white" stop-opacity="0"/>
    </radialGradient>
    <radialGradient id="paint8_radial_2135_1893" cx="0" cy="0" r="1" gradientUnits="userSpaceOnUse" gradientTransform="translate(11.0656 79.3704) rotate(-25.6336) scale(4.93399 14.333)">
    <stop stop-color="white"/>
    <stop offset="1" stop-color="white" stop-opacity="0"/>
    </radialGradient>
    <clipPath id="clip0_2135_1893">
    <rect width="105" height="104" fill="white"/>
    </clipPath>
    </defs>
</svg>