<svg width="122" height="67" viewBox="0 0 122 67" fill="none" xmlns="http://www.w3.org/2000/svg">
    <path d="M46.5 16C45.9 7.1 38.4 0 29.3 0C20.2 0 12.8 7.1 12.2 16C5.4 16.3 0 21.9 0 28.8C0 35.9 5.7 41.6 12.8 41.6H45.8C52.9 41.6 58.6 35.9 58.6 28.8C58.7 21.9 53.3 16.3 46.5 16Z" fill="url(#paint0_radial_2135_1876)"/>
    <path d="M29.3001 17.6003C24.5001 13.7003 22.6001 7.70027 25.1001 4.30027C27.6001 0.900275 33.5001 1.20027 38.4001 5.20027C43.2001 9.10027 45.1001 15.1003 42.6001 18.5003C40.1001 21.9003 34.2001 21.5003 29.3001 17.6003Z" fill="url(#paint1_radial_2135_1876)"/>
    <path opacity="0.4" d="M46.6 29.1995C42.8 26.0995 41.3 21.3995 43.3 18.6995C45.3 15.9995 49.9 16.2995 53.7 19.3995C57.5 22.4995 59 27.1995 57 29.8995C55 32.4995 50.4 32.1995 46.6 29.1995Z" fill="url(#paint2_radial_2135_1876)"/>
    <path opacity="0.2" d="M9.20006 29.6001C6.40005 25.2001 3.20005 23.1001 1.90005 24.9001C0.700052 26.7001 2.00005 31.6001 4.80005 36.0001C7.60005 40.4001 10.8 42.5001 12.1 40.7001C13.3 38.9001 12.0001 34.0001 9.20006 29.6001Z" fill="url(#paint3_radial_2135_1876)"/>
    <path d="M109.2 16C108.6 7.1 101.1 0 92.0001 0C82.9001 0 75.5001 7.1 74.8001 16C68.0001 16.3 62.6001 21.9 62.6001 28.8C62.6001 35.9 68.3001 41.6 75.4001 41.6H108.4C115.5 41.6 121.2 35.9 121.2 28.8C121.4 21.9 116 16.3 109.2 16Z" fill="url(#paint4_radial_2135_1876)"/>
    <path d="M92.1001 17.6003C87.3001 13.7003 85.4001 7.70027 87.9001 4.30027C90.4001 0.900275 96.3001 1.20027 101.2 5.20027C106 9.10027 107.9 15.1003 105.4 18.5003C102.8 21.9003 96.9001 21.5003 92.1001 17.6003Z" fill="url(#paint5_radial_2135_1876)"/>
    <path opacity="0.4" d="M109.3 29.1995C105.5 26.0995 104 21.3995 106 18.6995C108 15.9995 112.6 16.2995 116.4 19.3995C120.2 22.4995 121.7 27.1995 119.7 29.8995C117.7 32.4995 113.1 32.1995 109.3 29.1995Z" fill="url(#paint6_radial_2135_1876)"/>
    <path opacity="0.2" d="M71.9 29.6001C69.1 25.2001 65.9 23.1001 64.6 24.9001C63.4 26.7001 64.7 31.6001 67.5 36.0001C70.3 40.4001 73.5 42.5001 74.8 40.7001C76 38.9001 74.7 34.0001 71.9 29.6001Z" fill="url(#paint7_radial_2135_1876)"/>
    <path d="M81.4 35.3C80.7 24.5 71.7001 16 60.7001 16C49.7001 16 40.7 24.5 40 35.3C31.8 35.7 25.3 42.5 25.3 50.8C25.3 59.3 32.2 66.3 40.8 66.3H80.7001C89.2001 66.3 96.2001 59.4 96.2001 50.8C96.1001 42.4 89.6 35.7 81.4 35.3Z" fill="url(#paint8_radial_2135_1876)"/>
    <path d="M60.7001 37.2004C54.9001 32.5004 52.6001 25.3004 55.6001 21.1004C58.6001 16.9004 65.8001 17.4004 71.6001 22.1004C77.4001 26.8004 79.7001 34.0004 76.7001 38.2004C73.7001 42.4004 66.5001 41.9004 60.7001 37.2004Z" fill="url(#paint9_radial_2135_1876)"/>
    <path opacity="0.4" d="M81.5001 51.1997C76.9001 47.4997 75.1001 41.7997 77.5001 38.5997C79.9001 35.2997 85.5001 35.6997 90.1001 39.3997C94.7001 43.0997 96.5001 48.7997 94.1001 51.9997C91.7001 55.1997 86.1001 54.8997 81.5001 51.1997Z" fill="url(#paint10_radial_2135_1876)"/>
    <path opacity="0.2" d="M36.3001 51.6998C32.9001 46.3998 29.0001 43.8998 27.5001 45.9998C26.0001 48.0998 27.6001 54.0998 31.0001 59.3998C34.4001 64.6998 38.3001 67.1998 39.8001 65.0998C41.3001 62.9998 39.7001 56.9998 36.3001 51.6998Z" fill="url(#paint11_radial_2135_1876)"/>
    <defs>
    <radialGradient id="paint0_radial_2135_1876" cx="0" cy="0" r="1" gradientUnits="userSpaceOnUse" gradientTransform="translate(36.7263 8.77076) rotate(180) scale(44.7272 32.6732)">
    <stop stop-color="white"/>
    <stop offset="0.198" stop-color="#B4ECFF"/>
    <stop offset="1" stop-color="#69ACF1"/>
    </radialGradient>
    <radialGradient id="paint1_radial_2135_1876" cx="0" cy="0" r="1" gradientUnits="userSpaceOnUse" gradientTransform="translate(33.8623 11.3771) rotate(126.034) scale(7.69796 11.2299)">
    <stop stop-color="white"/>
    <stop offset="1" stop-color="white" stop-opacity="0"/>
    </radialGradient>
    <radialGradient id="paint2_radial_2135_1876" cx="0" cy="0" r="1" gradientUnits="userSpaceOnUse" gradientTransform="translate(50.1326 24.2745) rotate(126.034) scale(6.05015 8.82602)">
    <stop stop-color="white"/>
    <stop offset="1" stop-color="white" stop-opacity="0"/>
    </radialGradient>
    <radialGradient id="paint3_radial_2135_1876" cx="0" cy="0" r="1" gradientUnits="userSpaceOnUse" gradientTransform="translate(6.97378 32.8009) rotate(-25.7092) scale(3.10107 9.02749)">
    <stop stop-color="white"/>
    <stop offset="1" stop-color="white" stop-opacity="0"/>
    </radialGradient>
    <radialGradient id="paint4_radial_2135_1876" cx="0" cy="0" r="1" gradientUnits="userSpaceOnUse" gradientTransform="translate(99.443 8.77076) rotate(180) scale(44.7271 32.6731)">
    <stop stop-color="white"/>
    <stop offset="0.198" stop-color="#B4ECFF"/>
    <stop offset="1" stop-color="#69ACF1"/>
    </radialGradient>
    <radialGradient id="paint5_radial_2135_1876" cx="0" cy="0" r="1" gradientUnits="userSpaceOnUse" gradientTransform="translate(96.579 11.3771) rotate(126.034) scale(7.69782 11.2297)">
    <stop stop-color="white"/>
    <stop offset="1" stop-color="white" stop-opacity="0"/>
    </radialGradient>
    <radialGradient id="paint6_radial_2135_1876" cx="0" cy="0" r="1" gradientUnits="userSpaceOnUse" gradientTransform="translate(112.85 24.2744) rotate(126.034) scale(6.05015 8.82602)">
    <stop stop-color="white"/>
    <stop offset="1" stop-color="white" stop-opacity="0"/>
    </radialGradient>
    <radialGradient id="paint7_radial_2135_1876" cx="0" cy="0" r="1" gradientUnits="userSpaceOnUse" gradientTransform="translate(69.6892 32.7997) rotate(-25.7092) scale(3.10107 9.02749)">
    <stop stop-color="white"/>
    <stop offset="1" stop-color="white" stop-opacity="0"/>
    </radialGradient>
    <radialGradient id="paint8_radial_2135_1876" cx="0" cy="0" r="1" gradientUnits="userSpaceOnUse" gradientTransform="translate(69.6205 26.5281) rotate(180) scale(54.0182 39.4603)">
    <stop stop-color="white"/>
    <stop offset="0.198" stop-color="#D5F3FF"/>
    <stop offset="1" stop-color="#85BCF1"/>
    </radialGradient>
    <radialGradient id="paint9_radial_2135_1876" cx="0" cy="0" r="1" gradientUnits="userSpaceOnUse" gradientTransform="translate(66.161 29.6771) rotate(126.034) scale(9.29684 13.5623)">
    <stop stop-color="white"/>
    <stop offset="1" stop-color="white" stop-opacity="0"/>
    </radialGradient>
    <radialGradient id="paint10_radial_2135_1876" cx="0" cy="0" r="1" gradientUnits="userSpaceOnUse" gradientTransform="translate(85.813 45.2527) rotate(126.034) scale(7.30637 10.6586)">
    <stop stop-color="white"/>
    <stop offset="1" stop-color="white" stop-opacity="0"/>
    </radialGradient>
    <radialGradient id="paint11_radial_2135_1876" cx="0" cy="0" r="1" gradientUnits="userSpaceOnUse" gradientTransform="translate(33.6882 55.5502) rotate(-25.7092) scale(3.74527 10.9028)">
    <stop stop-color="white"/>
    <stop offset="1" stop-color="white" stop-opacity="0"/>
    </radialGradient>
    </defs>
</svg>