<svg width="100" height="113" viewBox="0 0 100 113" fill="none" xmlns="http://www.w3.org/2000/svg">

    <g clip-path="url(#clip0_2135_1924)">

        <path d="M93.8016 62.1781L87.3148 62.6831L86.0985 68.946L79.9158 67.1278L76.6724 72.6836L71.4018 68.845L66.4354 72.9866L62.7866 67.6328L56.7052 69.7541L55.1849 63.4912L48.6981 63.3902L49.4076 56.9253L43.3262 54.703L46.2655 48.8442L41.2991 44.7026L45.9615 40.2579L42.8194 34.6011L48.7994 31.9748L47.7859 25.6108L54.1713 25.2068L55.3876 18.8429L61.5703 20.6611L64.9151 15.2064L70.1856 18.9439L75.152 14.9033L78.6995 20.2571L84.8822 18.1358L86.4025 24.3987L92.8893 24.4997L92.1799 30.8636L98.1599 33.1869L95.3219 38.9447L100.187 43.1873L95.5246 47.632L98.6666 53.2888L92.788 55.8141L93.8016 62.1781Z" fill="url(#paint0_linear_2135_1924)"/>
        <path d="M70.7938 65.6129C82.8289 65.6129 92.5853 55.8894 92.5853 43.8948C92.5853 31.9003 82.8289 22.1768 70.7938 22.1768C58.7586 22.1768 49.0022 31.9003 49.0022 43.8948C49.0022 55.8894 58.7586 65.6129 70.7938 65.6129Z" fill="url(#paint1_radial_2135_1924)"/>
        <path d="M74.1384 41.6719C68.5638 37.2272 66.4354 30.3583 69.2733 26.4187C72.1113 22.4791 79.0035 22.8832 84.5781 27.4288C90.1527 31.8735 92.2812 38.7424 89.4432 42.682C86.5039 46.6216 79.6117 46.2175 74.1384 41.6719Z" fill="url(#paint2_radial_2135_1924)"/>
        <path opacity="0.4" d="M51.5361 48.7433C52.2456 46.319 55.9958 47.3291 59.8473 50.9656C63.6988 54.6021 66.2327 59.4508 65.5233 61.8752C64.8138 64.2995 61.0636 63.2894 57.2121 59.6529C53.3605 56.0163 50.7253 51.1676 51.5361 48.7433Z" fill="url(#paint3_radial_2135_1924)"/>
        <path d="M64.2238 48.6498C63.3714 36.7567 53.3986 27.3271 41.2948 27.3271C29.1057 27.3271 19.1329 36.7567 18.3657 48.6498C9.24524 49.1595 2 56.6351 2 65.7249C2 75.1544 9.67143 82.8 19.1329 82.8H63.3714C72.8329 82.8 80.5043 75.1544 80.5043 65.7249C80.5043 56.6351 73.2591 49.1595 64.2238 48.6498Z" fill="url(#paint4_radial_2135_1924)"/>
        <path d="M64.2238 48.6498C63.3714 36.7567 53.3986 27.3271 41.2948 27.3271C29.1057 27.3271 19.1329 36.7567 18.3657 48.6498C9.24524 49.1595 2 56.6351 2 65.7249C2 75.1544 9.67143 82.8 19.1329 82.8H63.3714C72.8329 82.8 80.5043 75.1544 80.5043 65.7249C80.5043 56.6351 73.2591 49.1595 64.2238 48.6498Z" fill="url(#paint5_radial_2135_1924)"/>
        <path d="M41.2948 50.7738C34.8167 45.5918 32.3448 37.6064 35.6691 33.0191C38.9934 28.4318 47.0057 28.9415 53.3986 34.1235C59.8767 39.3055 62.3486 47.2908 59.0243 51.8782C55.7 56.5504 47.6876 56.0407 41.2948 50.7738Z" fill="url(#paint6_radial_2135_1924)"/>
        <path opacity="0.4" d="M64.309 66.2349C59.1948 62.1572 57.2343 55.8709 59.8767 52.303C62.519 48.735 68.7414 49.0748 73.8557 53.2374C78.97 57.3151 80.9305 63.6014 78.2881 67.1693C75.6457 70.7373 69.4233 70.3125 64.309 66.2349Z" fill="url(#paint7_radial_2135_1924)"/>
        <path opacity="0.2" d="M14.2741 66.8292C10.5236 60.9676 6.1765 58.1642 4.55698 60.5428C2.93745 62.9215 4.64222 69.5476 8.39269 75.4092C12.1432 81.2708 16.4903 84.0742 18.1098 81.6956C19.7294 79.232 18.0246 72.6058 14.2741 66.8292Z" fill="url(#paint8_radial_2135_1924)"/>
        <path d="M21.7801 95.1705C20.855 96.8525 18.7526 97.357 17.0706 96.432C15.3887 95.5069 14.8841 93.4044 15.8092 91.7225C16.7343 90.0405 22.7052 86.7607 22.7052 86.7607C22.7052 86.7607 22.7052 93.4886 21.7801 95.1705Z" fill="url(#paint9_radial_2135_1924)"/>
        <path d="M15.8934 94.5821C15.3888 93.1524 15.6411 91.7228 16.6503 91.3023C17.5754 90.8818 18.7527 91.7228 19.3414 93.0683C19.846 94.498 19.5096 95.9276 18.5845 96.3481C17.5754 96.7686 16.398 96.0118 15.8934 94.5821Z" fill="url(#paint10_radial_2135_1924)"/>
        <path d="M36.2447 95.1705C35.3196 96.8525 33.2172 97.357 31.5352 96.432C29.8533 95.5069 29.3487 93.4044 30.2738 91.7225C31.1989 90.0405 37.1698 86.7607 37.1698 86.7607C37.1698 86.7607 37.1698 93.4886 36.2447 95.1705Z" fill="url(#paint11_radial_2135_1924)"/>
        <path d="M30.358 94.5821C29.8534 93.1524 30.1057 91.7228 31.1149 91.3023C32.04 90.8818 33.2173 91.7228 33.806 93.0683C34.3106 94.498 33.9742 95.9276 33.0491 96.3481C32.04 96.7686 30.8626 96.0118 30.358 94.5821Z" fill="url(#paint12_radial_2135_1924)"/>
        <path d="M50.7096 95.1705C49.7845 96.8525 47.682 97.357 46.0001 96.432C44.3181 95.5069 43.8136 93.4044 44.7386 91.7225C45.6637 90.0405 51.6346 86.7607 51.6346 86.7607C51.6346 86.7607 51.6346 93.4886 50.7096 95.1705Z" fill="url(#paint13_radial_2135_1924)"/>
        <path d="M44.8228 94.5821C44.3183 93.1524 44.5706 91.7228 45.5797 91.3023C46.5048 90.8818 47.6822 91.7228 48.2709 93.0683C48.7754 94.498 48.4391 95.9276 47.514 96.3481C46.5048 96.7686 45.3274 96.0118 44.8228 94.5821Z" fill="url(#paint14_radial_2135_1924)"/>
        <path d="M65.1744 95.1705C64.2493 96.8525 62.1469 97.357 60.4649 96.432C58.783 95.5069 58.2784 93.4044 59.2035 91.7225C60.1285 90.0405 66.0995 86.7607 66.0995 86.7607C66.0995 86.7607 66.0995 93.4886 65.1744 95.1705Z" fill="url(#paint15_radial_2135_1924)"/>
        <path d="M59.2877 94.5821C58.7831 93.1524 59.0354 91.7228 60.0446 91.3023C60.9696 90.8818 62.147 91.7228 62.7357 93.0683C63.2403 94.498 62.9039 95.9276 61.9788 96.3481C60.9696 96.7686 59.7923 96.0118 59.2877 94.5821Z" fill="url(#paint16_radial_2135_1924)"/>
        <path d="M29.0125 107.281C28.0875 108.963 25.985 109.467 24.3031 108.542C22.6211 107.617 22.1165 105.431 23.0416 103.833C23.9667 102.151 29.9376 98.8711 29.9376 98.8711C29.9376 98.8711 29.9376 105.683 29.0125 107.281Z" fill="url(#paint17_radial_2135_1924)"/>
        <path d="M23.1258 106.775C22.6212 105.346 22.8735 103.916 23.8827 103.496C24.8078 103.075 25.9851 103.916 26.5738 105.262C27.0784 106.691 26.742 108.121 25.817 108.541C24.8078 108.962 23.6304 108.121 23.1258 106.775Z" fill="url(#paint18_radial_2135_1924)"/>
        <path d="M43.4774 107.281C42.5523 108.963 40.4499 109.467 38.7679 108.542C37.086 107.617 36.5814 105.431 37.5064 103.833C38.4315 102.151 44.4025 98.8711 44.4025 98.8711C44.4025 98.8711 44.4025 105.683 43.4774 107.281Z" fill="url(#paint19_radial_2135_1924)"/>
        <path d="M37.5904 106.775C37.0858 105.346 37.3381 103.916 38.3473 103.496C39.2724 103.075 40.4497 103.916 41.0384 105.262C41.543 106.691 41.2066 108.121 40.2816 108.541C39.2724 108.962 38.095 108.121 37.5904 106.775Z" fill="url(#paint20_radial_2135_1924)"/>
        <path d="M57.942 107.281C57.0169 108.963 54.9145 109.467 53.2325 108.542C51.5506 107.617 51.046 105.431 51.971 103.833C52.8961 102.151 58.8671 98.8711 58.8671 98.8711C58.8671 98.8711 58.8671 105.683 57.942 107.281Z" fill="url(#paint21_radial_2135_1924)"/>
        <path d="M52.0553 106.775C51.5507 105.346 51.803 103.916 52.8121 103.496C53.7372 103.075 54.9146 103.916 55.5033 105.262C56.0079 106.691 55.6715 108.121 54.7464 108.541C53.7372 108.962 52.5599 108.121 52.0553 106.775Z" fill="url(#paint22_radial_2135_1924)"/>

    </g>
    <defs>

        <linearGradient id="paint0_linear_2135_1924" x1="97.6186" y1="14.0328" x2="46.0703" y2="71.8313" gradientUnits="userSpaceOnUse">
            <stop stop-color="#FFBA24"/>
            <stop offset="1" stop-color="#FF5500"/>
        </linearGradient>
        <radialGradient id="paint1_radial_2135_1924" cx="0" cy="0" r="1" gradientUnits="userSpaceOnUse" gradientTransform="translate(75.7627 30.3021) rotate(180) scale(41.3945 41.2549)">
            <stop stop-color="#FFF4C3"/>
            <stop offset="0.1559" stop-color="#FFE036"/>
            <stop offset="1" stop-color="#FA761C"/>
        </radialGradient>
        <radialGradient id="paint2_radial_2135_1924" cx="0" cy="0" r="1" gradientUnits="userSpaceOnUse" gradientTransform="translate(79.3124 34.5468) rotate(126.127) scale(8.84469 12.9161)">
            <stop stop-color="white"/>
            <stop offset="1" stop-color="white" stop-opacity="0"/>
        </radialGradient>
        <radialGradient id="paint3_radial_2135_1924" cx="0" cy="0" r="1" gradientUnits="userSpaceOnUse" gradientTransform="translate(58.5296 55.3096) rotate(-136.886) scale(9.62391 4.08676)">
            <stop stop-color="white"/>
            <stop offset="1" stop-color="white" stop-opacity="0"/>
        </radialGradient>
        <radialGradient id="paint4_radial_2135_1924" cx="0" cy="0" r="1" gradientUnits="userSpaceOnUse" gradientTransform="translate(51.1572 39.0264) rotate(180) scale(59.8862 43.5994)">
            <stop stop-color="white"/>
            <stop offset="0.198" stop-color="#D5F3FF"/>
            <stop offset="1" stop-color="#85BCF1"/>
        </radialGradient>
        <radialGradient id="paint5_radial_2135_1924" cx="0" cy="0" r="1" gradientUnits="userSpaceOnUse" gradientTransform="translate(59.6431 44.0317) scale(50.91 50.7383)">
            <stop stop-color="#FFE036"/>
            <stop offset="0.00517282" stop-color="#FFDF36" stop-opacity="0.9933"/>
            <stop offset="0.1623" stop-color="#FDB92C" stop-opacity="0.789"/>
            <stop offset="0.319" stop-color="#FC9C25" stop-opacity="0.5851"/>
            <stop offset="0.4735" stop-color="#FB8720" stop-opacity="0.3841"/>
            <stop offset="0.6247" stop-color="#FA7A1D" stop-opacity="0.1875"/>
            <stop offset="0.7688" stop-color="#FA761C" stop-opacity="0"/>
        </radialGradient>
        <radialGradient id="paint6_radial_2135_1924" cx="0" cy="0" r="1" gradientUnits="userSpaceOnUse" gradientTransform="translate(47.322 42.5052) rotate(126.127) scale(10.2842 15.0182)">
            <stop stop-color="white"/>
            <stop offset="1" stop-color="white" stop-opacity="0"/>
        </radialGradient>
        <radialGradient id="paint7_radial_2135_1924" cx="0" cy="0" r="1" gradientUnits="userSpaceOnUse" gradientTransform="translate(69.1063 59.7153) rotate(126.127) scale(8.08218 11.8026)">
            <stop stop-color="white"/>
            <stop offset="1" stop-color="white" stop-opacity="0"/>
        </radialGradient>
        <radialGradient id="paint8_radial_2135_1924" cx="0" cy="0" r="1" gradientUnits="userSpaceOnUse" gradientTransform="translate(11.3231 71.094) rotate(-25.6336) scale(4.14937 12.0537)">
            <stop stop-color="white"/>
            <stop offset="1" stop-color="white" stop-opacity="0"/>
        </radialGradient>
        <radialGradient id="paint9_radial_2135_1924" cx="0" cy="0" r="1" gradientUnits="userSpaceOnUse" gradientTransform="translate(17.1422 94.3864) rotate(30.0007) scale(8.31784 8.31783)">
            <stop stop-color="#D0F2FF"/>
            <stop offset="0.198" stop-color="#D5F3FF"/>
            <stop offset="1" stop-color="#85BCF1"/>
        </radialGradient>
        <radialGradient id="paint10_radial_2135_1924" cx="0" cy="0" r="1" gradientUnits="userSpaceOnUse" gradientTransform="translate(17.5818 93.8447) rotate(156.037) scale(1.85858 2.71123)">
            <stop stop-color="white"/>
            <stop offset="1" stop-color="white" stop-opacity="0"/>
        </radialGradient>
        <radialGradient id="paint11_radial_2135_1924" cx="0" cy="0" r="1" gradientUnits="userSpaceOnUse" gradientTransform="translate(31.6006 94.3866) rotate(30.0007) scale(8.31783 8.31783)">
            <stop stop-color="#D0F2FF"/>
            <stop offset="0.198" stop-color="#D5F3FF"/>
            <stop offset="1" stop-color="#85BCF1"/>
        </radialGradient>
        <radialGradient id="paint12_radial_2135_1924" cx="0" cy="0" r="1" gradientUnits="userSpaceOnUse" gradientTransform="translate(32.0403 93.8446) rotate(156.037) scale(1.85858 2.71123)">
            <stop stop-color="white"/>
            <stop offset="1" stop-color="white" stop-opacity="0"/>
        </radialGradient>
        <radialGradient id="paint13_radial_2135_1924" cx="0" cy="0" r="1" gradientUnits="userSpaceOnUse" gradientTransform="translate(46.0598 94.3865) rotate(30.0007) scale(8.31816 8.31817)">
            <stop stop-color="#D0F2FF"/>
            <stop offset="0.198" stop-color="#D5F3FF"/>
            <stop offset="1" stop-color="#85BCF1"/>
        </radialGradient>
        <radialGradient id="paint14_radial_2135_1924" cx="0" cy="0" r="1" gradientUnits="userSpaceOnUse" gradientTransform="translate(46.4991 93.8448) rotate(156.037) scale(1.85858 2.71123)">
            <stop stop-color="white"/>
            <stop offset="1" stop-color="white" stop-opacity="0"/>
        </radialGradient>
        <radialGradient id="paint15_radial_2135_1924" cx="0" cy="0" r="1" gradientUnits="userSpaceOnUse" gradientTransform="translate(60.5185 94.3866) rotate(30.0007) scale(8.31783 8.31783)">
            <stop stop-color="#D0F2FF"/>
            <stop offset="0.198" stop-color="#D5F3FF"/>
            <stop offset="1" stop-color="#85BCF1"/>
        </radialGradient>
        <radialGradient id="paint16_radial_2135_1924" cx="0" cy="0" r="1" gradientUnits="userSpaceOnUse" gradientTransform="translate(60.9579 93.8445) rotate(156.037) scale(1.85858 2.71123)">
            <stop stop-color="white"/>
            <stop offset="1" stop-color="white" stop-opacity="0"/>
        </radialGradient>
        <radialGradient id="paint17_radial_2135_1924" cx="0" cy="0" r="1" gradientUnits="userSpaceOnUse" gradientTransform="translate(24.3717 106.535) rotate(30.0007) scale(8.31783 8.31783)">
            <stop stop-color="#D0F2FF"/>
            <stop offset="0.198" stop-color="#D5F3FF"/>
            <stop offset="1" stop-color="#85BCF1"/>
        </radialGradient>
        <radialGradient id="paint18_radial_2135_1924" cx="0" cy="0" r="1" gradientUnits="userSpaceOnUse" gradientTransform="translate(24.811 105.992) rotate(156.037) scale(1.85858 2.71123)">
            <stop stop-color="white"/>
            <stop offset="1" stop-color="white" stop-opacity="0"/>
        </radialGradient>
        <radialGradient id="paint19_radial_2135_1924" cx="0" cy="0" r="1" gradientUnits="userSpaceOnUse" gradientTransform="translate(38.8306 106.535) rotate(30.0007) scale(8.31791 8.31791)">
            <stop stop-color="#D0F2FF"/>
            <stop offset="0.198" stop-color="#D5F3FF"/>
            <stop offset="1" stop-color="#85BCF1"/>
        </radialGradient>
        <radialGradient id="paint20_radial_2135_1924" cx="0" cy="0" r="1" gradientUnits="userSpaceOnUse" gradientTransform="translate(39.2699 105.992) rotate(156.037) scale(1.8587 2.7114)">
            <stop stop-color="white"/>
            <stop offset="1" stop-color="white" stop-opacity="0"/>
        </radialGradient>
        <radialGradient id="paint21_radial_2135_1924" cx="0" cy="0" r="1" gradientUnits="userSpaceOnUse" gradientTransform="translate(53.2892 106.535) rotate(30.0007) scale(8.31784 8.31783)">
            <stop stop-color="#D0F2FF"/>
            <stop offset="0.198" stop-color="#D5F3FF"/>
            <stop offset="1" stop-color="#85BCF1"/>
        </radialGradient>
        <radialGradient id="paint22_radial_2135_1924" cx="0" cy="0" r="1" gradientUnits="userSpaceOnUse" gradientTransform="translate(53.7287 105.992) rotate(156.037) scale(1.8587 2.7114)">
            <stop stop-color="white"/>
            <stop offset="1" stop-color="white" stop-opacity="0"/>
        </radialGradient>
        <clipPath id="clip0_2135_1924">
            <rect width="100" height="113" fill="white"/>
        </clipPath>

    </defs>
</svg>