<svg width="97" height="109" viewBox="0 0 97 109" fill="none" xmlns="http://www.w3.org/2000/svg">
    <g clip-path="url(#clip0_2135_1913)">
    <path d="M71.5 61.6284C83.3741 61.6284 93 52.035 93 40.2009C93 28.3669 83.3741 18.7734 71.5 18.7734C59.6259 18.7734 50 28.3669 50 40.2009C50 52.035 59.6259 61.6284 71.5 61.6284Z" fill="url(#paint0_radial_2135_1913)"/>
    <path d="M74.8 38.0078C69.3 33.6227 67.2 26.8456 70 22.9588C72.8 19.0719 79.6 19.4706 85.1 23.9554C90.6 28.3405 92.6999 35.1176 89.9 39.0045C87 42.8913 80.2 42.4927 74.8 38.0078Z" fill="url(#paint1_radial_2135_1913)"/>
    <path opacity="0.4" d="M52.5 44.9854C53.2 42.5935 56.9 43.5901 60.7 47.178C64.5 50.7658 67 55.5496 66.3 57.9415C65.6 60.3335 61.9 59.3368 58.1 55.749C54.3 52.1611 51.7 47.3773 52.5 44.9854Z" fill="url(#paint2_radial_2135_1913)"/>
    <path d="M61.306 48.3423C60.4659 36.6207 50.6369 27.3271 38.7076 27.3271C26.6943 27.3271 16.8653 36.6207 16.1092 48.3423C7.12025 48.8446 -0.0205078 56.2125 -0.0205078 65.1711C-0.0205078 74.4647 7.5403 82 16.8653 82H60.4659C69.7909 82 77.3517 74.4647 77.3517 65.1711C77.3517 56.2125 70.211 48.8446 61.306 48.3423Z" fill="url(#paint3_radial_2135_1913)"/>
    <path d="M38.7075 50.4354C32.3228 45.3282 29.8866 37.458 33.1629 32.9368C36.4393 28.4156 44.3361 28.9179 50.6368 34.0252C57.0215 39.1325 59.4577 47.0027 56.1814 51.5239C52.905 56.1288 45.0082 55.6264 38.7075 50.4354Z" fill="url(#paint4_radial_2135_1913)"/>
    <path opacity="0.4" d="M61.3901 65.6734C56.3495 61.6546 54.4173 55.4589 57.0216 51.9424C59.6259 48.4259 65.7585 48.7608 70.7991 52.8634C75.8396 56.8822 77.7718 63.0779 75.1675 66.5944C72.5632 70.1109 66.4306 69.6923 61.3901 65.6734Z" fill="url(#paint5_radial_2135_1913)"/>
    <path opacity="0.2" d="M12.0768 66.2595C8.38044 60.4825 4.09599 57.7195 2.49982 60.0638C0.903647 62.4081 2.58383 68.9388 6.28022 74.7158C9.97661 80.4929 14.2611 83.2558 15.8572 80.9115C17.4534 78.4835 15.7732 71.9529 12.0768 66.2595Z" fill="url(#paint6_radial_2135_1913)"/>
    <path d="M19.7801 95.4098C18.855 97.0917 16.7526 97.5963 15.0706 96.6712C13.3887 95.7462 12.8841 93.6437 13.8092 91.9618C14.7343 90.2798 20.7052 87 20.7052 87C20.7052 87 20.7052 93.7278 19.7801 95.4098Z" fill="url(#paint7_radial_2135_1913)"/>
    <path d="M13.8934 94.8214C13.3888 93.3917 13.6411 91.962 14.6503 91.5415C15.5754 91.121 16.7527 91.962 17.3414 93.3076C17.846 94.7373 17.5096 96.1669 16.5845 96.5874C15.5754 97.0079 14.398 96.251 13.8934 94.8214Z" fill="url(#paint8_radial_2135_1913)"/>
    <path d="M34.2447 95.4098C33.3196 97.0917 31.2172 97.5963 29.5352 96.6712C27.8533 95.7462 27.3487 93.6437 28.2738 91.9618C29.1989 90.2798 35.1698 87 35.1698 87C35.1698 87 35.1698 93.7278 34.2447 95.4098Z" fill="url(#paint9_radial_2135_1913)"/>
    <path d="M28.358 94.8214C27.8534 93.3917 28.1057 91.962 29.1149 91.5415C30.04 91.121 31.2173 91.962 31.806 93.3076C32.3106 94.7373 31.9742 96.1669 31.0491 96.5874C30.04 97.0079 28.8626 96.251 28.358 94.8214Z" fill="url(#paint10_radial_2135_1913)"/>
    <path d="M48.7096 95.4098C47.7845 97.0917 45.682 97.5963 44.0001 96.6712C42.3181 95.7462 41.8136 93.6437 42.7386 91.9618C43.6637 90.2798 49.6346 87 49.6346 87C49.6346 87 49.6346 93.7278 48.7096 95.4098Z" fill="url(#paint11_radial_2135_1913)"/>
    <path d="M42.8228 94.8214C42.3183 93.3917 42.5706 91.962 43.5797 91.5415C44.5048 91.121 45.6822 91.962 46.2709 93.3076C46.7754 94.7373 46.4391 96.1669 45.514 96.5874C44.5048 97.0079 43.3274 96.251 42.8228 94.8214Z" fill="url(#paint12_radial_2135_1913)"/>
    <path d="M63.1744 95.4098C62.2493 97.0917 60.1469 97.5963 58.4649 96.6712C56.783 95.7462 56.2784 93.6437 57.2035 91.9618C58.1285 90.2798 64.0995 87 64.0995 87C64.0995 87 64.0995 93.7278 63.1744 95.4098Z" fill="url(#paint13_radial_2135_1913)"/>
    <path d="M57.2877 94.8214C56.7831 93.3917 57.0354 91.962 58.0446 91.5415C58.9696 91.121 60.147 91.962 60.7357 93.3076C61.2403 94.7373 60.9039 96.1669 59.9788 96.5874C58.9696 97.0079 57.7923 96.251 57.2877 94.8214Z" fill="url(#paint14_radial_2135_1913)"/>
    <path d="M27.0125 107.52C26.0875 109.202 23.985 109.707 22.3031 108.782C20.6211 107.857 20.1165 105.67 21.0416 104.072C21.9667 102.39 27.9376 99.1104 27.9376 99.1104C27.9376 99.1104 27.9376 105.922 27.0125 107.52Z" fill="url(#paint15_radial_2135_1913)"/>
    <path d="M21.1258 107.015C20.6212 105.585 20.8735 104.155 21.8827 103.735C22.8078 103.314 23.9851 104.155 24.5738 105.501C25.0784 106.931 24.742 108.36 23.817 108.781C22.8078 109.201 21.6304 108.36 21.1258 107.015Z" fill="url(#paint16_radial_2135_1913)"/>
    <path d="M41.4774 107.52C40.5523 109.202 38.4499 109.707 36.7679 108.782C35.086 107.857 34.5814 105.67 35.5064 104.072C36.4315 102.39 42.4025 99.1104 42.4025 99.1104C42.4025 99.1104 42.4025 105.922 41.4774 107.52Z" fill="url(#paint17_radial_2135_1913)"/>
    <path d="M35.5904 107.015C35.0858 105.585 35.3381 104.155 36.3473 103.735C37.2724 103.314 38.4497 104.155 39.0384 105.501C39.543 106.931 39.2066 108.36 38.2816 108.781C37.2724 109.201 36.095 108.36 35.5904 107.015Z" fill="url(#paint18_radial_2135_1913)"/>
    <path d="M55.942 107.52C55.0169 109.202 52.9145 109.707 51.2325 108.782C49.5506 107.857 49.046 105.67 49.971 104.072C50.8961 102.39 56.8671 99.1104 56.8671 99.1104C56.8671 99.1104 56.8671 105.922 55.942 107.52Z" fill="url(#paint19_radial_2135_1913)"/>
    <path d="M50.0553 107.015C49.5507 105.585 49.803 104.155 50.8121 103.735C51.7372 103.314 52.9146 104.155 53.5033 105.501C54.0079 106.931 53.6715 108.36 52.7464 108.781C51.7372 109.201 50.5599 108.36 50.0553 107.015Z" fill="url(#paint20_radial_2135_1913)"/>
    </g>
    <defs>
    <radialGradient id="paint0_radial_2135_1913" cx="0" cy="0" r="1" gradientUnits="userSpaceOnUse" gradientTransform="translate(76.4024 26.79) rotate(180) scale(40.8406 40.7029)">
    <stop stop-color="#B6CCD2"/>
    <stop offset="0.1559" stop-color="#97B6BE"/>
    <stop offset="1" stop-color="#5D87B4"/>
    </radialGradient>
    <radialGradient id="paint1_radial_2135_1913" cx="0" cy="0" r="1" gradientUnits="userSpaceOnUse" gradientTransform="translate(79.9047 30.9781) rotate(126.127) scale(8.72634 12.7433)">
    <stop stop-color="white"/>
    <stop offset="1" stop-color="white" stop-opacity="0"/>
    </radialGradient>
    <radialGradient id="paint2_radial_2135_1913" cx="0" cy="0" r="1" gradientUnits="userSpaceOnUse" gradientTransform="translate(59.3999 51.4639) rotate(-136.886) scale(9.49514 4.03208)">
    <stop stop-color="white"/>
    <stop offset="1" stop-color="white" stop-opacity="0"/>
    </radialGradient>
    <radialGradient id="paint3_radial_2135_1913" cx="0" cy="0" r="1" gradientUnits="userSpaceOnUse" gradientTransform="translate(48.4279 38.8577) rotate(180) scale(59.0227 42.9707)">
    <stop stop-color="white"/>
    <stop offset="0.198" stop-color="#D5F3FF"/>
    <stop offset="1" stop-color="#85BCF1"/>
    </radialGradient>
    <radialGradient id="paint4_radial_2135_1913" cx="0" cy="0" r="1" gradientUnits="userSpaceOnUse" gradientTransform="translate(44.6478 42.2861) rotate(126.127) scale(10.1359 14.8016)">
    <stop stop-color="white"/>
    <stop offset="1" stop-color="white" stop-opacity="0"/>
    </radialGradient>
    <radialGradient id="paint5_radial_2135_1913" cx="0" cy="0" r="1" gradientUnits="userSpaceOnUse" gradientTransform="translate(66.1181 59.2478) rotate(126.127) scale(7.96563 11.6324)">
    <stop stop-color="white"/>
    <stop offset="1" stop-color="white" stop-opacity="0"/>
    </radialGradient>
    <radialGradient id="paint6_radial_2135_1913" cx="0" cy="0" r="1" gradientUnits="userSpaceOnUse" gradientTransform="translate(9.16836 70.4629) rotate(-25.6336) scale(4.08953 11.8799)">
    <stop stop-color="white"/>
    <stop offset="1" stop-color="white" stop-opacity="0"/>
    </radialGradient>
    <radialGradient id="paint7_radial_2135_1913" cx="0" cy="0" r="1" gradientUnits="userSpaceOnUse" gradientTransform="translate(15.1422 94.6257) rotate(30.0007) scale(8.31784 8.31783)">
    <stop stop-color="#D0F2FF"/>
    <stop offset="0.198" stop-color="#D5F3FF"/>
    <stop offset="1" stop-color="#85BCF1"/>
    </radialGradient>
    <radialGradient id="paint8_radial_2135_1913" cx="0" cy="0" r="1" gradientUnits="userSpaceOnUse" gradientTransform="translate(15.5818 94.0839) rotate(156.037) scale(1.85858 2.71123)">
    <stop stop-color="white"/>
    <stop offset="1" stop-color="white" stop-opacity="0"/>
    </radialGradient>
    <radialGradient id="paint9_radial_2135_1913" cx="0" cy="0" r="1" gradientUnits="userSpaceOnUse" gradientTransform="translate(29.6006 94.6259) rotate(30.0007) scale(8.31783 8.31783)">
    <stop stop-color="#D0F2FF"/>
    <stop offset="0.198" stop-color="#D5F3FF"/>
    <stop offset="1" stop-color="#85BCF1"/>
    </radialGradient>
    <radialGradient id="paint10_radial_2135_1913" cx="0" cy="0" r="1" gradientUnits="userSpaceOnUse" gradientTransform="translate(30.0403 94.0839) rotate(156.037) scale(1.85858 2.71123)">
    <stop stop-color="white"/>
    <stop offset="1" stop-color="white" stop-opacity="0"/>
    </radialGradient>
    <radialGradient id="paint11_radial_2135_1913" cx="0" cy="0" r="1" gradientUnits="userSpaceOnUse" gradientTransform="translate(44.0598 94.6257) rotate(30.0007) scale(8.31816 8.31817)">
    <stop stop-color="#D0F2FF"/>
    <stop offset="0.198" stop-color="#D5F3FF"/>
    <stop offset="1" stop-color="#85BCF1"/>
    </radialGradient>
    <radialGradient id="paint12_radial_2135_1913" cx="0" cy="0" r="1" gradientUnits="userSpaceOnUse" gradientTransform="translate(44.4991 94.084) rotate(156.037) scale(1.85858 2.71123)">
    <stop stop-color="white"/>
    <stop offset="1" stop-color="white" stop-opacity="0"/>
    </radialGradient>
    <radialGradient id="paint13_radial_2135_1913" cx="0" cy="0" r="1" gradientUnits="userSpaceOnUse" gradientTransform="translate(58.5185 94.6259) rotate(30.0007) scale(8.31783 8.31783)">
    <stop stop-color="#D0F2FF"/>
    <stop offset="0.198" stop-color="#D5F3FF"/>
    <stop offset="1" stop-color="#85BCF1"/>
    </radialGradient>
    <radialGradient id="paint14_radial_2135_1913" cx="0" cy="0" r="1" gradientUnits="userSpaceOnUse" gradientTransform="translate(58.9579 94.0838) rotate(156.037) scale(1.85858 2.71123)">
    <stop stop-color="white"/>
    <stop offset="1" stop-color="white" stop-opacity="0"/>
    </radialGradient>
    <radialGradient id="paint15_radial_2135_1913" cx="0" cy="0" r="1" gradientUnits="userSpaceOnUse" gradientTransform="translate(22.3717 106.774) rotate(30.0007) scale(8.31783 8.31783)">
    <stop stop-color="#D0F2FF"/>
    <stop offset="0.198" stop-color="#D5F3FF"/>
    <stop offset="1" stop-color="#85BCF1"/>
    </radialGradient>
    <radialGradient id="paint16_radial_2135_1913" cx="0" cy="0" r="1" gradientUnits="userSpaceOnUse" gradientTransform="translate(22.811 106.231) rotate(156.037) scale(1.85858 2.71123)">
    <stop stop-color="white"/>
    <stop offset="1" stop-color="white" stop-opacity="0"/>
    </radialGradient>
    <radialGradient id="paint17_radial_2135_1913" cx="0" cy="0" r="1" gradientUnits="userSpaceOnUse" gradientTransform="translate(36.8306 106.774) rotate(30.0007) scale(8.31791 8.31791)">
    <stop stop-color="#D0F2FF"/>
    <stop offset="0.198" stop-color="#D5F3FF"/>
    <stop offset="1" stop-color="#85BCF1"/>
    </radialGradient>
    <radialGradient id="paint18_radial_2135_1913" cx="0" cy="0" r="1" gradientUnits="userSpaceOnUse" gradientTransform="translate(37.2699 106.231) rotate(156.037) scale(1.8587 2.7114)">
    <stop stop-color="white"/>
    <stop offset="1" stop-color="white" stop-opacity="0"/>
    </radialGradient>
    <radialGradient id="paint19_radial_2135_1913" cx="0" cy="0" r="1" gradientUnits="userSpaceOnUse" gradientTransform="translate(51.2892 106.774) rotate(30.0007) scale(8.31784 8.31783)">
    <stop stop-color="#D0F2FF"/>
    <stop offset="0.198" stop-color="#D5F3FF"/>
    <stop offset="1" stop-color="#85BCF1"/>
    </radialGradient>
    <radialGradient id="paint20_radial_2135_1913" cx="0" cy="0" r="1" gradientUnits="userSpaceOnUse" gradientTransform="translate(51.7287 106.231) rotate(156.037) scale(1.8587 2.7114)">
    <stop stop-color="white"/>
    <stop offset="1" stop-color="white" stop-opacity="0"/>
    </radialGradient>
    <clipPath id="clip0_2135_1913">
    <rect width="97" height="109" fill="white"/>
    </clipPath>
    </defs>
</svg>