<svg width="93" height="94" viewBox="0 0 93 94" fill="none" xmlns="http://www.w3.org/2000/svg">
    <path d="M40.3001 70.4998H39.4001H35.9001L43.1001 56.4998C43.4001 55.8998 43.7001 55.1998 43.8001 54.4998C44.7001 50.1998 42.0001 45.8998 37.6001 44.9998C33.3001 44.0998 29.0001 46.7998 28.1001 51.1998L23.3001 73.7998L23.2001 74.4998C23.1001 74.7998 23.1001 75.1998 23.1001 75.4998C23.1001 78.1998 25.3001 80.3998 28.0001 80.3998H33.3001L30.4001 92.3998C30.3001 92.7998 30.5001 93.2998 30.8001 93.5998C31.3001 93.9998 32.0001 93.8998 32.4001 93.3998L43.8001 77.5998C44.3001 76.8998 44.6001 75.9998 44.6001 74.9998C44.7001 72.4998 42.7001 70.4998 40.3001 70.4998Z" fill="url(#paint0_linear_2135_1771)"/>
    <path d="M64.9001 70.4998H64.0001H60.5001L67.7001 56.4998C68.0001 55.8998 68.3001 55.1998 68.4001 54.4998C69.3001 50.1998 66.6001 45.8998 62.2001 44.9998C57.9001 44.0998 53.6001 46.7998 52.7001 51.1998L47.9001 73.7998L47.7001 74.4998C47.6001 74.7998 47.6001 75.1998 47.6001 75.4998C47.6001 78.1998 49.8001 80.3998 52.5001 80.3998H57.8001L54.9001 92.3998C54.8001 92.7998 55.0001 93.2998 55.3001 93.5998C55.8001 93.9998 56.5001 93.8998 56.9001 93.3998L68.3001 77.5998C68.8001 76.8998 69.1001 75.9998 69.1001 74.9998C69.3001 72.4998 67.3001 70.4998 64.9001 70.4998Z" fill="url(#paint1_linear_2135_1771)"/>
    <path d="M72.9 25.1C71.9 11.1 60.2 0 46 0C31.7 0 20 11.1 19.1 25.1C8.5 25.6 0 34.4 0 45.2C0 56.3 9 65.3 20.1 65.3H72C83.1 65.3 92.1 56.3 92.1 45.2C92.1 34.4 83.6 25.7 72.9 25.1Z" fill="url(#paint2_radial_2135_1771)"/>
    <path opacity="0.6" d="M47.9001 27.5997C40.3001 21.4997 37.4 12.0997 41.3 6.6997C45.2 1.2997 54.6 1.89972 62.1 7.99972C69.7 14.0997 72.6001 23.4997 68.7001 28.8997C64.8001 34.3997 55.5 33.7997 47.9001 27.5997Z" fill="url(#paint3_radial_2135_1771)"/>
    <path opacity="0.4" d="M73.0999 45.8003C67.0999 41.0003 64.7999 33.6003 67.8999 29.4003C70.9999 25.2003 78.2999 25.6003 84.2999 30.5003C90.2999 35.3003 92.5999 42.7003 89.4999 46.9003C86.3999 51.1003 78.9999 50.6003 73.0999 45.8003Z" fill="url(#paint4_radial_2135_1771)"/>
    <path opacity="0.2" d="M14.3 46.5C9.89996 39.6 4.79997 36.3 2.89997 39.1C0.999968 41.9 2.99997 49.7 7.39997 56.5C11.8 63.4 16.9 66.7 18.8 63.9C20.7 61.1 18.7 53.3 14.3 46.5Z" fill="url(#paint5_radial_2135_1771)"/>
    <defs>
    <linearGradient id="paint0_linear_2135_1771" x1="27.0124" y1="92.9409" x2="38.5367" y2="56.6518" gradientUnits="userSpaceOnUse">
    <stop offset="0.1559" stop-color="#FFE036"/>
    <stop offset="1" stop-color="#FA761C"/>
    </linearGradient>
    <linearGradient id="paint1_linear_2135_1771" x1="51.632" y1="92.9411" x2="63.1564" y2="56.6516" gradientUnits="userSpaceOnUse">
    <stop offset="0.1559" stop-color="#FFE036"/>
    <stop offset="1" stop-color="#FA761C"/>
    </linearGradient>
    <radialGradient id="paint2_radial_2135_1771" cx="0" cy="0" r="1" gradientUnits="userSpaceOnUse" gradientTransform="translate(57.6203 13.7529) rotate(180) scale(70.2558 51.3219)">
    <stop stop-color="#B6CCD2"/>
    <stop offset="0.198" stop-color="#97B6BE"/>
    <stop offset="1" stop-color="#5D87B4"/>
    </radialGradient>
    <radialGradient id="paint3_radial_2135_1771" cx="0" cy="0" r="1" gradientUnits="userSpaceOnUse" gradientTransform="translate(55.0114 17.8498) rotate(126.034) scale(12.0916 17.6393)">
    <stop stop-color="white"/>
    <stop offset="1" stop-color="white" stop-opacity="0"/>
    </radialGradient>
    <radialGradient id="paint4_radial_2135_1771" cx="0" cy="0" r="1" gradientUnits="userSpaceOnUse" gradientTransform="translate(78.6786 38.1102) rotate(126.034) scale(9.50283 13.8628)">
    <stop stop-color="white"/>
    <stop offset="1" stop-color="white" stop-opacity="0"/>
    </radialGradient>
    <radialGradient id="paint5_radial_2135_1771" cx="0" cy="0" r="1" gradientUnits="userSpaceOnUse" gradientTransform="translate(10.8973 51.4973) rotate(-25.7092) scale(4.87096 14.1798)">
    <stop stop-color="white"/>
    <stop offset="1" stop-color="white" stop-opacity="0"/>
    </radialGradient>
    </defs>
</svg>