<svg width="65" height="74" viewBox="0 0 65 74" fill="none" xmlns="http://www.w3.org/2000/svg">
    <path d="M62.3853 50.3L55.6853 46.4L57.7852 45.2C59.4852 44.2 59.9852 42.1 59.0852 40.5C58.0852 38.9 55.9852 38.3 54.3853 39.2L48.8853 42.4L43.7852 39.5C43.9852 38.6 44.0852 37.6 44.0852 36.7C44.0852 35.7 43.9852 34.8 43.7852 33.9L48.8853 31L54.3853 34.2C54.8853 34.5 55.4852 34.7 56.0852 34.7C57.2852 34.7 58.4852 34.1 59.0852 33C60.0852 31.4 59.4852 29.2 57.7852 28.3L55.6853 27.1L62.3853 23.2C63.9852 22.2 64.5853 20.1 63.6853 18.5C62.6853 16.8 60.5853 16.3 58.9853 17.2L52.2852 21.1V18.7C52.2852 16.8 50.7853 15.3 48.8853 15.3C46.9852 15.3 45.4853 16.8 45.4853 18.7V25.1L40.3853 28C38.9852 26.7 37.2853 25.7 35.4853 25.1V19.2L40.9853 16C42.6853 15 43.1852 12.9 42.2852 11.3C41.2852 9.60002 39.1852 9.1 37.5852 10L35.4853 11.2V3.40002C35.4853 1.50002 33.9852 0 32.0852 0C30.1852 0 28.6853 1.50002 28.6853 3.40002V11.2L26.5852 10C24.9852 9 22.7852 9.60002 21.8853 11.3C20.8853 12.9 21.4853 15.1 23.1853 16L28.6853 19.2V25.1C26.7853 25.7 25.1853 26.6 23.7853 28L18.6853 25V18.6C18.6853 16.7 17.1853 15.2 15.2853 15.2C13.3853 15.2 11.8853 16.7 11.8853 18.6V21L5.18525 17.1C3.48525 16.1 1.38525 16.7 0.485249 18.4C-0.514751 20 0.085252 22.2 1.78525 23.1L8.48525 27L6.38525 28.2C4.78525 29.2 4.18525 31.3 5.08525 32.9C5.68525 34 6.88525 34.6 8.08525 34.6C8.68525 34.6 9.28525 34.5 9.78525 34.1L15.2853 30.9L20.3853 33.8C20.1852 34.7 19.9852 35.7 19.9852 36.6C19.9852 37.6 20.0853 38.5 20.3853 39.4L15.2853 42.3L9.78525 39.1C8.08525 38.1 5.98525 38.7 5.08525 40.4C4.08525 42 4.68525 44.2 6.38525 45.1L8.48525 46.3L1.78525 50.2C0.085252 51.2 -0.414751 53.3 0.485249 54.9C1.08525 56 2.28525 56.6 3.48525 56.6C4.08525 56.6 4.68525 56.5 5.18525 56.1L11.8853 52.2V54.6C11.8853 56.5 13.3853 58 15.2853 58C17.1853 58 18.7853 56.5 18.7853 54.6V48.2L23.8853 45.2C25.2852 46.5 26.9852 47.5 28.7852 48.1V54L23.2853 57.2C21.5853 58.2 21.0852 60.3 21.9852 61.9C22.9852 63.6 25.0853 64.1 26.6853 63.2L28.7852 62V69.8C28.7852 71.7 30.2853 73.2 32.1853 73.2C34.0853 73.2 35.5852 71.7 35.5852 69.8V62.2L37.6853 63.4C38.1853 63.7 38.7853 63.9 39.3853 63.9C40.5853 63.9 41.7853 63.3 42.3853 62.2C43.3853 60.6 42.7852 58.4 41.0852 57.5L35.5852 54.3V48.4C37.4852 47.8 39.0853 46.9 40.4853 45.5L45.5852 48.4V54.8C45.5852 56.7 47.0853 58.2 48.9853 58.2C50.8853 58.2 52.3853 56.7 52.3853 54.8V52.4L59.0852 56.3C59.5852 56.6 60.1852 56.8 60.7852 56.8C61.9852 56.8 63.1852 56.2 63.7852 55.1C64.5852 53.4 63.9852 51.2 62.3853 50.3ZM31.7852 41.9C28.8852 41.9 26.4852 39.5 26.4852 36.6C26.4852 33.7 28.8852 31.3 31.7852 31.3C34.6852 31.3 37.0852 33.7 37.0852 36.6C37.0852 39.5 34.6852 41.9 31.7852 41.9Z" fill="url(#paint0_radial_2135_1828)"/>
    <defs>
        <radialGradient id="paint0_radial_2135_1828" cx="0" cy="0" r="1" gradientUnits="userSpaceOnUse" gradientTransform="translate(52.8606 21.9782) scale(62.6546 62.6546)">
            <stop stop-color="#28CBE9"/>
            <stop offset="1" stop-color="#0A4FBB"/>
        </radialGradient>
    </defs>
</svg>