<svg width="279" height="18" viewBox="0 0 279 18" fill="none" xmlns="http://www.w3.org/2000/svg">

    <path d="M5.52473 12.6366C5.7067 12.6366 5.88121 12.7089 6.00988 12.8375C6.13854 12.9662 6.21083 13.1407 6.21083 13.3227C6.21083 13.5046 6.13854 13.6791 6.00988 13.8078C5.88121 13.9365 5.7067 14.0088 5.52473 14.0088C5.34277 14.0088 5.16826 13.9365 5.03959 13.8078C4.91092 13.6791 4.83863 13.5046 4.83863 13.3227C4.83863 13.1407 4.91092 12.9662 5.03959 12.8375C5.16826 12.7089 5.34277 12.6366 5.52473 12.6366ZM11.3552 7.83388C11.8101 7.83388 12.2464 8.01459 12.5681 8.33626C12.8897 8.65793 13.0704 9.09421 13.0704 9.54912C13.0704 10.004 12.8897 10.4403 12.5681 10.762C12.2464 11.0837 11.8101 11.2644 11.3552 11.2644L11.3195 11.263L11.2413 11.2692L10.7322 11.2685C10.8091 11.4544 10.8516 11.6582 10.8516 11.8723C10.8542 12.0871 10.8138 12.3002 10.7328 12.4992C10.6519 12.6981 10.532 12.8789 10.3802 13.0309C10.2284 13.1829 10.0478 13.303 9.84888 13.3842C9.65001 13.4655 9.43692 13.5061 9.22212 13.5038C8.53396 13.5038 8.02831 13.1992 7.76073 12.6969C7.6996 12.5818 7.68448 12.4477 7.71844 12.3218C7.75239 12.1959 7.83287 12.0875 7.94362 12.0187C8.05437 11.9499 8.18713 11.9256 8.31505 11.9509C8.44298 11.9762 8.55653 12.0491 8.63276 12.1549L8.70137 12.2668C8.79468 12.3999 8.94836 12.4746 9.2228 12.4746C9.30241 12.4769 9.38164 12.4629 9.45561 12.4334C9.52958 12.4039 9.59673 12.3596 9.65291 12.3031C9.70909 12.2467 9.75312 12.1793 9.78228 12.1052C9.81144 12.0311 9.82511 11.9518 9.82245 11.8723C9.82245 11.5704 9.57409 11.3131 9.24339 11.2781L9.09587 11.2692H2.60881C2.47844 11.2691 2.35294 11.2196 2.25767 11.1306C2.16241 11.0416 2.10448 10.9197 2.09559 10.7897C2.08671 10.6596 2.12752 10.531 2.2098 10.4299C2.29207 10.3287 2.40967 10.2626 2.53883 10.2448L2.60881 10.24H11.2413L11.2742 10.2414L11.3147 10.2366L11.4355 10.2304C11.553 10.2163 11.665 10.172 11.7604 10.1019C11.8557 10.0317 11.9313 9.93801 11.9798 9.82996C12.0283 9.72191 12.0479 9.60316 12.0369 9.48525C12.0258 9.36735 11.9845 9.25431 11.9168 9.15713C11.8491 9.05996 11.7575 8.98195 11.6507 8.93069C11.544 8.87944 11.4258 8.85669 11.3076 8.86466C11.1895 8.87262 11.0754 8.91103 10.9765 8.97615C10.8776 9.04127 10.7972 9.13088 10.7432 9.23626L10.6814 9.37829C10.6206 9.49375 10.5182 9.58179 10.395 9.6246C10.2717 9.66741 10.1367 9.66178 10.0175 9.60885C9.89817 9.55592 9.80346 9.45965 9.75248 9.33952C9.7015 9.2194 9.69806 9.08439 9.74287 8.96182C9.86356 8.6312 10.083 8.34566 10.3714 8.14391C10.6598 7.94215 11.0032 7.83392 11.3552 7.83388ZM7.23861 4.39995C7.8507 4.39833 8.44031 4.63051 8.88696 5.04905C9.3336 5.46759 9.60355 6.04089 9.64166 6.6518C9.67976 7.26271 9.48314 7.86511 9.09197 8.33591C8.7008 8.8067 8.14461 9.11035 7.53706 9.1848L7.46845 9.19853L7.39778 9.20264H2.60881C2.47844 9.2026 2.35294 9.15308 2.25767 9.06407C2.16241 8.97506 2.10448 8.85321 2.09559 8.72314C2.08671 8.59307 2.12752 8.46448 2.2098 8.36334C2.29207 8.2622 2.40967 8.19607 2.53883 8.1783L2.60881 8.1735H7.23929C7.51069 8.1735 7.77599 8.09302 8.00164 7.94224C8.2273 7.79146 8.40318 7.57715 8.50704 7.32642C8.6109 7.07568 8.63807 6.79978 8.58512 6.5336C8.53218 6.26742 8.40149 6.02291 8.20958 5.83101C8.01768 5.6391 7.77317 5.50841 7.50699 5.45547C7.24081 5.40252 6.96491 5.4297 6.71417 5.53355C6.46344 5.63741 6.24913 5.81329 6.09835 6.03895C5.94757 6.2646 5.86709 6.5299 5.86709 6.8013C5.86709 6.93777 5.81288 7.06866 5.71638 7.16516C5.61988 7.26166 5.48899 7.31587 5.35252 7.31587C5.21605 7.31587 5.08516 7.26166 4.98866 7.16516C4.89216 7.06866 4.83795 6.93777 4.83795 6.8013C4.83795 6.16442 5.09094 5.55363 5.54128 5.10329C5.99162 4.65295 6.60173 4.39995 7.23861 4.39995ZM2.78034 4.40338C2.9623 4.40338 3.13681 4.47567 3.26548 4.60434C3.39415 4.73301 3.46644 4.90752 3.46644 5.08948C3.46644 5.27145 3.39415 5.44596 3.26548 5.57463C3.13681 5.7033 2.9623 5.77558 2.78034 5.77558C2.59837 5.77558 2.42386 5.7033 2.29519 5.57463C2.16652 5.44596 2.09424 5.27145 2.09424 5.08948C2.09424 4.90752 2.16652 4.73301 2.29519 4.60434C2.42386 4.47567 2.59837 4.40338 2.78034 4.40338ZM12.3857 3.71729C12.5677 3.71729 12.7422 3.78957 12.8709 3.91824C12.9995 4.04691 13.0718 4.22142 13.0718 4.40338C13.0718 4.58535 12.9995 4.75986 12.8709 4.88853C12.7422 5.0172 12.5677 5.08948 12.3857 5.08948C12.2038 5.08948 12.0292 5.0172 11.9006 4.88853C11.7719 4.75986 11.6996 4.58535 11.6996 4.40338C11.6996 4.22142 11.7719 4.04691 11.9006 3.91824C12.0292 3.78957 12.2038 3.71729 12.3857 3.71729Z" fill="#54B6E9"/>
    <path d="M76.7404 11.7796C76.6459 11.7799 76.5523 11.7603 76.4659 11.7219C75.977 11.5078 75.561 11.1559 75.2688 10.7093C74.9766 10.2626 74.8209 9.74045 74.8207 9.20669C74.8214 8.59827 75.0239 8.00727 75.3965 7.52628C75.7691 7.0453 76.2907 6.7015 76.8797 6.54875L76.879 6.4623C76.879 4.192 78.7253 2.34571 80.9956 2.34571C81.9678 2.34444 82.9089 2.68883 83.6506 3.31735C84.3924 3.94588 84.8866 4.81762 85.0449 5.77689C85.0751 5.9563 85.0328 6.14036 84.9273 6.28858C84.8218 6.4368 84.6617 6.53704 84.4823 6.56727C84.3031 6.59615 84.1197 6.55332 83.9718 6.44804C83.8239 6.34275 83.7233 6.18349 83.6919 6.00467C83.5867 5.36567 83.2577 4.78489 82.7638 4.36601C82.2699 3.94713 81.6432 3.71743 80.9956 3.7179C80.5879 3.71817 80.1855 3.80915 79.8173 3.98425C79.4492 4.15935 79.1247 4.41418 78.8673 4.73025C78.6099 5.04633 78.426 5.41573 78.3291 5.81167C78.2321 6.20761 78.2245 6.62016 78.3067 7.01941L78.4844 7.89076L77.5026 7.83038C76.8083 7.8345 76.1929 8.44993 76.1929 9.20669C76.1929 9.75214 76.516 10.2461 77.0162 10.465C77.1606 10.5282 77.2787 10.6392 77.3509 10.7793C77.4231 10.9194 77.4448 11.0801 77.4124 11.2343C77.3801 11.3886 77.2956 11.527 77.1732 11.6263C77.0508 11.7256 76.898 11.7797 76.7404 11.7796ZM86.4844 5.7762C86.3024 5.7762 86.1279 5.84849 85.9992 5.97715C85.8705 6.10582 85.7983 6.28033 85.7983 6.4623C85.7983 6.64426 85.8705 6.81878 85.9992 6.94744C86.1279 7.07611 86.3024 7.1484 86.4844 7.1484C86.6663 7.1484 86.8408 7.22068 86.9695 7.34935C87.0982 7.47802 87.1705 7.65253 87.1705 7.8345C87.1705 8.01646 87.0982 8.19097 86.9695 8.31964C86.8408 8.44831 86.6663 8.52059 86.4844 8.52059H79.8978C79.7158 8.52059 79.5413 8.59288 79.4127 8.72155C79.284 8.85022 79.2117 9.02473 79.2117 9.20669C79.2117 9.38866 79.284 9.56317 79.4127 9.69184C79.5413 9.82051 79.7158 9.89279 79.8978 9.89279H83.0539C83.2358 9.89279 83.4103 9.96508 83.539 10.0937C83.6677 10.2224 83.74 10.3969 83.74 10.5789C83.74 10.7609 83.6677 10.9354 83.539 11.064C83.4103 11.1927 83.2358 11.265 83.0539 11.265H79.6234C78.4886 11.265 77.5651 12.1885 77.5651 13.3233C77.5651 14.4581 78.4886 15.3816 79.6234 15.3816C79.8053 15.3816 79.9798 15.3093 80.1085 15.1806C80.2372 15.052 80.3095 14.8774 80.3095 14.6955C80.3095 14.5135 80.2372 14.339 80.1085 14.2103C79.9798 14.0817 79.8053 14.0094 79.6234 14.0094C79.4414 14.0094 79.2669 13.9371 79.1382 13.8084C79.0096 13.6798 78.9373 13.5052 78.9373 13.3233C78.9373 13.1413 79.0096 12.9668 79.1382 12.8381C79.2669 12.7095 79.4414 12.6372 79.6234 12.6372H83.0539C84.1887 12.6372 85.1122 11.7137 85.1122 10.5789C85.1122 10.3367 85.0628 10.1082 84.9852 9.89279H86.4844C87.6192 9.89279 88.5427 8.9693 88.5427 7.8345C88.5427 6.69969 87.6192 5.7762 86.4844 5.7762Z" fill="#54B6E9"/>
    <path d="M160.583 13.3227C160.401 13.3227 160.227 13.2504 160.098 13.1217C159.969 12.9931 159.897 12.8185 159.897 12.6366C159.897 12.4546 159.969 12.2801 160.098 12.1514C160.227 12.0228 160.401 11.9505 160.583 11.9505C161.718 11.9505 162.641 11.027 162.641 9.89218C162.641 8.75737 161.718 7.83388 160.583 7.83388C160.42 7.83388 160.243 7.8627 160.025 7.92376L159.29 8.13028L159.163 7.37694C159.058 6.73782 158.729 6.15687 158.235 5.73786C157.741 5.31884 157.114 5.08904 156.466 5.08949C156.059 5.09011 155.657 5.18118 155.29 5.35612C154.922 5.53107 154.598 5.78551 154.341 6.10105C154.084 6.4166 153.9 6.78536 153.802 7.18068C153.705 7.57599 153.697 7.98799 153.778 8.38688L153.957 9.23764L152.971 9.20196C152.278 9.20608 151.664 9.82151 151.664 10.5783C151.664 11.335 152.278 11.9505 153.036 11.9505C153.218 11.9505 153.392 12.0228 153.521 12.1514C153.65 12.2801 153.722 12.4546 153.722 12.6366C153.722 12.8185 153.65 12.9931 153.521 13.1217C153.392 13.2504 153.218 13.3227 153.036 13.3227C151.523 13.3227 150.292 12.0918 150.292 10.5783C150.292 9.96976 150.495 9.3787 150.868 8.8977C151.24 8.4167 151.762 8.07295 152.351 7.92033L152.35 7.83388C152.35 5.56358 154.196 3.71729 156.466 3.71729C157.319 3.71582 158.15 3.98045 158.845 4.47427C159.54 4.96809 160.063 5.66647 160.342 6.47198C162.349 6.30663 164.013 7.92102 164.013 9.89218C164.013 11.7838 162.475 13.3227 160.583 13.3227ZM157.591 10.5783L154.503 13.3577L156.562 14.3518L155.533 16.7532L158.62 13.9745L156.562 12.9796L157.591 10.5783Z" fill="#54B6E9"/>
    <path d="M44.6323 3.71758L43.9462 5.73059L43.2601 3.71758C43.2231 3.60855 43.2126 3.49228 43.2295 3.3784C43.2464 3.26452 43.2902 3.1563 43.3573 3.06272C43.4243 2.96914 43.5127 2.89289 43.6152 2.84029C43.7176 2.78769 43.831 2.76025 43.9462 2.76025C44.0613 2.76025 44.1748 2.78769 44.2772 2.84029C44.3796 2.89289 44.468 2.96914 44.5351 3.06272C44.6021 3.1563 44.6459 3.26452 44.6628 3.3784C44.6797 3.49228 44.6693 3.60855 44.6323 3.71758ZM38.4574 8.52027L40.4704 9.20637L38.4574 9.89247C38.3484 9.92946 38.2321 9.93994 38.1182 9.92304C38.0043 9.90613 37.8961 9.86233 37.8025 9.79527C37.7089 9.7282 37.6327 9.6398 37.5801 9.53738C37.5275 9.43497 37.5001 9.3215 37.5001 9.20637C37.5001 9.09124 37.5275 8.97776 37.5801 8.87535C37.6327 8.77294 37.7089 8.68454 37.8025 8.61747C37.8961 8.5504 38.0043 8.5066 38.1182 8.4897C38.2321 8.4728 38.3484 8.48328 38.4574 8.52027ZM43.2601 14.6952L43.9462 12.6821L44.6323 14.6952C44.6693 14.8042 44.6797 14.9205 44.6628 15.0343C44.6459 15.1482 44.6021 15.2564 44.5351 15.35C44.468 15.4436 44.3796 15.5198 44.2772 15.5724C44.1748 15.625 44.0613 15.6525 43.9462 15.6525C43.831 15.6525 43.7176 15.625 43.6152 15.5724C43.5127 15.5198 43.4243 15.4436 43.3573 15.35C43.2902 15.2564 43.2464 15.1482 43.2295 15.0343C43.2126 14.9205 43.2231 14.8042 43.2601 14.6952ZM49.435 9.8911L47.422 9.205L49.435 8.5189C49.544 8.4819 49.6603 8.47142 49.7741 8.48833C49.888 8.50523 49.9962 8.54903 50.0898 8.6161C50.1834 8.68317 50.2597 8.77157 50.3123 8.87398C50.3649 8.97639 50.3923 9.08987 50.3923 9.205C50.3923 9.32013 50.3649 9.4336 50.3123 9.53601C50.2597 9.63842 50.1834 9.72683 50.0898 9.79389C49.9962 9.86096 49.888 9.90476 49.7741 9.92166C49.6603 9.93857 49.544 9.92809 49.435 9.8911ZM40.55 4.84004L41.4879 6.74808L39.5798 5.81018C39.4762 5.75944 39.3861 5.68469 39.3171 5.59213C39.2481 5.49957 39.2022 5.39188 39.1832 5.27801C39.1643 5.16415 39.1727 5.04739 39.208 4.93746C39.2432 4.82753 39.3042 4.7276 39.3858 4.64597C39.4674 4.56435 39.5673 4.50339 39.6773 4.46816C39.7872 4.43293 39.904 4.42446 40.0178 4.44344C40.1317 4.46242 40.2394 4.50831 40.3319 4.57729C40.4245 4.64627 40.4993 4.73635 40.55 4.84004ZM39.5798 12.6019L41.4879 11.664L40.55 13.572C40.4993 13.6757 40.4245 13.7658 40.3319 13.8348C40.2394 13.9037 40.1317 13.9496 40.0178 13.9686C39.904 13.9876 39.7872 13.9791 39.6773 13.9439C39.5673 13.9087 39.4674 13.8477 39.3858 13.7661C39.3042 13.6845 39.2432 13.5845 39.208 13.4746C39.1727 13.3647 39.1643 13.2479 39.1832 13.134C39.2022 13.0202 39.2481 12.9125 39.3171 12.8199C39.3861 12.7274 39.4762 12.6526 39.5798 12.6019ZM47.3417 13.572L46.4038 11.664L48.3118 12.6019C48.4155 12.6526 48.5056 12.7274 48.5746 12.8199C48.6436 12.9125 48.6894 13.0202 48.7084 13.134C48.7274 13.2479 48.7189 13.3647 48.6837 13.4746C48.6485 13.5845 48.5875 13.6845 48.5059 13.7661C48.4243 13.8477 48.3243 13.9087 48.2144 13.9439C48.1045 13.9791 47.9877 13.9876 47.8738 13.9686C47.76 13.9496 47.6523 13.9037 47.5597 13.8348C47.4672 13.7658 47.3924 13.6757 47.3417 13.572ZM48.3111 5.80881L46.4024 6.74739L47.341 4.83866C47.3917 4.73497 47.4665 4.64489 47.559 4.57591C47.6516 4.50693 47.7593 4.46104 47.8732 4.44206C47.987 4.42308 48.1038 4.43156 48.2137 4.46679C48.3236 4.50201 48.4236 4.56298 48.5052 4.6446C48.5868 4.72623 48.6478 4.82616 48.683 4.93609C48.7182 5.04602 48.7267 5.16277 48.7077 5.27664C48.6888 5.39051 48.6429 5.4982 48.5739 5.59076C48.5049 5.68332 48.4148 5.75807 48.3111 5.80881ZM43.9462 12.2938C42.244 12.2938 40.8587 10.9086 40.8587 9.20637C40.8587 7.50416 42.244 6.11892 43.9462 6.11892C45.6484 6.11892 47.0336 7.50416 47.0336 9.20637C47.0336 10.9086 45.6484 12.2938 43.9462 12.2938ZM43.9462 7.49112C43 7.49112 42.2309 8.26024 42.2309 9.20637C42.2309 10.1525 43 10.9216 43.9462 10.9216C44.8923 10.9216 45.6614 10.1525 45.6614 9.20637C45.6614 8.26024 44.8923 7.49112 43.9462 7.49112Z" fill="#54B6E9"/>
    <g clipPath="url(#clip0_524_1760)">
        <path d="M196.946 16.0671C196.764 16.0671 196.59 15.9948 196.461 15.8661C196.332 15.7374 196.26 15.5629 196.26 15.381V11.2644C196.26 11.0824 196.332 10.9079 196.461 10.7792C196.59 10.6506 196.764 10.5783 196.946 10.5783C197.128 10.5783 197.303 10.6506 197.431 10.7792C197.56 10.9079 197.632 11.0824 197.632 11.2644V15.381C197.632 15.5629 197.56 15.7374 197.431 15.8661C197.303 15.9948 197.128 16.0671 196.946 16.0671ZM192.83 16.0671C192.648 16.0671 192.473 15.9948 192.344 15.8661C192.216 15.7374 192.143 15.5629 192.143 15.381V11.2644C192.143 11.0824 192.216 10.9079 192.344 10.7792C192.473 10.6506 192.648 10.5783 192.83 10.5783C193.012 10.5783 193.186 10.6506 193.315 10.7792C193.443 10.9079 193.516 11.0824 193.516 11.2644V15.381C193.516 15.5629 193.443 15.7374 193.315 15.8661C193.186 15.9948 193.012 16.0671 192.83 16.0671ZM194.888 17.4393C194.706 17.4393 194.531 17.367 194.403 17.2383C194.274 17.1096 194.202 16.9351 194.202 16.7532V12.6366C194.202 12.4546 194.274 12.2801 194.403 12.1514C194.531 12.0228 194.706 11.9505 194.888 11.9505C195.07 11.9505 195.244 12.0228 195.373 12.1514C195.502 12.2801 195.574 12.4546 195.574 12.6366V16.7532C195.574 16.9351 195.502 17.1096 195.373 17.2383C195.244 17.367 195.07 17.4393 194.888 17.4393ZM190.771 13.3227C189.258 13.3227 188.027 12.0918 188.027 10.5783C188.028 9.96985 188.23 9.37886 188.603 8.89787C188.975 8.41688 189.497 8.07308 190.086 7.92033L190.085 7.83388C190.085 5.56358 191.931 3.71729 194.202 3.71729C195.054 3.71598 195.886 3.98067 196.581 4.47445C197.276 4.96824 197.799 5.66653 198.078 6.47198C200.093 6.30457 201.749 7.9217 201.749 9.89218C201.748 10.6422 201.501 11.3713 201.047 11.9682C200.593 12.5651 199.956 12.9972 199.234 13.1985C199.146 13.2256 199.054 13.2348 198.962 13.2256C198.871 13.2163 198.782 13.1889 198.702 13.1447C198.621 13.1006 198.55 13.0408 198.493 12.9688C198.436 12.8968 198.394 12.8141 198.37 12.7255C198.345 12.637 198.339 12.5445 198.351 12.4534C198.363 12.3623 198.393 12.2746 198.44 12.1954C198.486 12.1162 198.548 12.0472 198.622 11.9924C198.695 11.9376 198.779 11.8981 198.869 11.8764C199.302 11.7552 199.684 11.4958 199.956 11.1376C200.228 10.7794 200.376 10.3421 200.377 9.89218C200.377 8.75737 199.453 7.83388 198.318 7.83388C198.152 7.83388 197.976 7.86201 197.762 7.92307L197.025 8.13302L196.898 7.37694C196.793 6.73781 196.464 6.15687 195.97 5.73785C195.476 5.31884 194.849 5.08904 194.202 5.08949C193.794 5.08994 193.392 5.18095 193.025 5.35594C192.657 5.53092 192.332 5.7855 192.075 6.10123C191.818 6.41697 191.634 6.78597 191.537 7.18151C191.44 7.57706 191.432 7.98925 191.514 8.38825L191.684 9.21294L190.708 9.20196C190.014 9.20608 189.399 9.82151 189.399 10.5783C189.399 11.335 190.014 11.9505 190.771 11.9505C190.953 11.9505 191.128 12.0228 191.256 12.1514C191.385 12.2801 191.457 12.4546 191.457 12.6366C191.457 12.8185 191.385 12.993 191.256 13.1217C191.128 13.2504 190.953 13.3227 190.771 13.3227Z" fill="#54B6E9"/>
    </g>
    <g clipPath="url(#clip1_524_1760)">
        <path d="M234.339 3.03179L233.652 5.09008L232.966 3.03179C232.931 2.92326 232.921 2.80778 232.939 2.69484C232.956 2.5819 233 2.47473 233.067 2.38212C233.134 2.28952 233.222 2.21412 233.324 2.16212C233.426 2.11012 233.538 2.08301 233.652 2.08301C233.767 2.08301 233.879 2.11012 233.981 2.16212C234.083 2.21412 234.171 2.28952 234.238 2.38212C234.305 2.47473 234.349 2.5819 234.366 2.69484C234.384 2.80778 234.374 2.92326 234.339 3.03179ZM238.019 5.12439L236.078 6.09522L237.049 4.15425C237.139 3.98975 237.289 3.86653 237.468 3.81049C237.646 3.75446 237.84 3.76998 238.008 3.8538C238.175 3.93762 238.304 4.0832 238.366 4.25991C238.429 4.43661 238.42 4.63067 238.343 4.80124C238.273 4.94116 238.159 5.05455 238.019 5.12439ZM239.141 9.20668L237.083 8.52058L239.141 7.83448C239.25 7.79828 239.366 7.78842 239.479 7.80572C239.592 7.82302 239.7 7.86698 239.793 7.93398C239.886 8.00099 239.961 8.08911 240.013 8.19109C240.066 8.29308 240.093 8.40601 240.093 8.52058C240.093 8.63514 240.066 8.74807 240.013 8.85006C239.961 8.95204 239.886 9.04017 239.793 9.10717C239.7 9.17417 239.592 9.21813 239.479 9.23543C239.366 9.25273 239.25 9.24288 239.141 9.20668ZM230.256 4.15425L231.227 6.09522L229.286 5.12439C229.183 5.07332 229.094 4.9985 229.026 4.9061C228.957 4.8137 228.912 4.70639 228.894 4.59302C228.875 4.47965 228.884 4.3635 228.919 4.25415C228.954 4.1448 229.015 4.0454 229.096 3.96417C229.177 3.88294 229.277 3.82221 229.386 3.787C229.495 3.75179 229.612 3.74311 229.725 3.76169C229.838 3.78026 229.946 3.82555 230.038 3.89381C230.13 3.96207 230.205 4.05134 230.256 4.15425ZM236.586 9.44132C236.682 9.15042 236.74 8.84373 236.74 8.52058C236.74 6.81837 235.355 5.43313 233.652 5.43313C232.733 5.43313 231.912 5.84068 231.349 6.48149L231.251 6.46228C230.672 6.46267 230.099 6.58582 229.57 6.82364C229.042 7.06146 228.57 7.40854 228.185 7.84202C228.057 7.79483 227.919 7.78471 227.785 7.81283C227.652 7.84095 227.529 7.90616 227.431 8.00095C227.334 8.09575 227.264 8.21626 227.232 8.34862C227.2 8.48097 227.205 8.61978 227.248 8.74905C227.288 8.86363 227.357 8.95419 227.438 9.03103C227.238 9.52248 227.135 10.0481 227.135 10.5789L227.136 10.6653C226.547 10.8179 226.025 11.1617 225.652 11.6427C225.28 12.1237 225.077 12.7148 225.076 13.3233C225.076 14.8368 226.308 16.0677 227.821 16.0677H235.368C237.259 16.0677 238.798 14.5287 238.798 12.6372C238.798 11.1765 237.876 9.93463 236.586 9.44132ZM233.652 6.80533C234.599 6.80533 235.368 7.57445 235.368 8.52058C235.368 8.77169 235.302 9.00496 235.204 9.21971C234.962 9.23412 234.71 9.27048 234.437 9.3487C234.261 8.88987 233.988 8.4744 233.637 8.13049C233.285 7.78658 232.864 7.52229 232.402 7.35558C232.561 7.18257 232.754 7.04437 232.97 6.94967C233.185 6.85498 233.417 6.80583 233.652 6.80533ZM235.368 14.6955H227.821C227.063 14.6955 226.448 14.08 226.448 13.3233C226.448 12.5665 227.063 11.9511 227.758 11.947L228.733 11.9579L228.563 11.1332C228.481 10.7343 228.489 10.3221 228.587 9.92662C228.684 9.53113 228.868 9.16218 229.125 8.84648C229.382 8.53077 229.706 8.2762 230.074 8.10117C230.442 7.92615 230.844 7.83505 231.251 7.83448L231.298 7.82487C231.929 7.83996 232.535 8.07101 233.015 8.47939C233.496 8.88777 233.821 9.44871 233.938 10.0684L233.964 10.196C234.005 10.3368 234.09 10.4606 234.207 10.5487C234.324 10.6368 234.466 10.6845 234.613 10.6845L234.811 10.6688C235.025 10.607 235.202 10.5789 235.368 10.5789C236.503 10.5789 237.426 11.5024 237.426 12.6372C237.426 13.772 236.503 14.6955 235.368 14.6955Z" fill="#54B6E9"/>
    </g>
    <path d="M122.848 13.3227C122.666 13.3227 122.491 13.2504 122.362 13.1217C122.234 12.9931 122.161 12.8185 122.161 12.6366C122.161 12.4546 122.234 12.2801 122.362 12.1514C122.491 12.0228 122.666 11.9505 122.848 11.9505C123.982 11.9505 124.906 11.027 124.906 9.89218C124.906 8.75737 123.982 7.83388 122.848 7.83388C122.681 7.83388 122.504 7.86201 122.292 7.92308L121.554 8.13371L121.427 7.37694C121.322 6.73782 120.993 6.15687 120.499 5.73785C120.005 5.31884 119.379 5.08904 118.731 5.08949C118.323 5.08988 117.921 5.18092 117.553 5.35603C117.185 5.53113 116.861 5.7859 116.603 6.10188C116.346 6.41787 116.162 6.78714 116.065 7.18294C115.968 7.57875 115.961 7.99116 116.043 8.39031L116.21 9.21294L115.236 9.20196C114.544 9.20608 113.928 9.82151 113.928 10.5783C113.928 11.335 114.544 11.9505 115.3 11.9505C115.482 11.9505 115.657 12.0228 115.786 12.1514C115.914 12.2801 115.987 12.4546 115.987 12.6366C115.987 12.8185 115.914 12.9931 115.786 13.1217C115.657 13.2504 115.482 13.3227 115.3 13.3227C113.787 13.3227 112.556 12.0918 112.556 10.5783C112.557 9.96986 112.759 9.37886 113.132 8.89787C113.504 8.41688 114.026 8.07308 114.615 7.92033L114.614 7.83388C114.614 5.56358 116.461 3.71729 118.731 3.71729C119.583 3.71588 120.415 3.98053 121.11 4.47433C121.805 4.96813 122.328 5.66647 122.607 6.47198C124.624 6.30457 126.278 7.9217 126.278 9.89218C126.278 11.7838 124.739 13.3227 122.848 13.3227ZM118.388 13.3227L119.074 11.2644L119.76 13.3227C119.796 13.4312 119.805 13.5467 119.788 13.6596C119.77 13.7726 119.726 13.8797 119.659 13.9723C119.592 14.0649 119.504 14.1403 119.403 14.1923C119.301 14.2443 119.188 14.2715 119.074 14.2715C118.96 14.2715 118.847 14.2443 118.745 14.1923C118.643 14.1403 118.556 14.0649 118.489 13.9723C118.422 13.8797 118.378 13.7726 118.36 13.6596C118.343 13.5467 118.352 13.4312 118.388 13.3227ZM120.446 14.6949L121.132 12.6366L121.818 14.6949C121.854 14.8034 121.864 14.9189 121.846 15.0318C121.829 15.1448 121.785 15.2519 121.718 15.3445C121.651 15.4371 121.563 15.5125 121.461 15.5645C121.359 15.6165 121.247 15.6436 121.132 15.6436C121.018 15.6436 120.905 15.6165 120.804 15.5645C120.702 15.5125 120.614 15.4371 120.547 15.3445C120.48 15.2519 120.436 15.1448 120.418 15.0318C120.401 14.9189 120.41 14.8034 120.446 14.6949ZM116.33 14.6949L117.016 12.6366L117.702 14.6949C117.738 14.8034 117.747 14.9189 117.73 15.0318C117.712 15.1448 117.668 15.2519 117.601 15.3445C117.534 15.4371 117.446 15.5125 117.344 15.5645C117.243 15.6165 117.13 15.6436 117.016 15.6436C116.901 15.6436 116.789 15.6165 116.687 15.5645C116.585 15.5125 116.497 15.4371 116.43 15.3445C116.363 15.2519 116.319 15.1448 116.302 15.0318C116.284 14.9189 116.294 14.8034 116.33 14.6949Z" fill="#54B6E9"/>
    <path d="M276.191 11.3568L274.505 11.0117L275.522 10.74C275.609 10.7167 275.691 10.6765 275.762 10.6216C275.834 10.5667 275.894 10.4983 275.939 10.4203C275.984 10.3422 276.013 10.2561 276.025 10.1667C276.037 10.0774 276.031 9.98661 276.007 9.89957C275.984 9.81254 275.944 9.73095 275.889 9.65947C275.834 9.58799 275.766 9.52801 275.688 9.48297C275.61 9.43793 275.523 9.4087 275.434 9.39695C275.345 9.3852 275.254 9.39116 275.167 9.4145L274.132 9.691C274.158 9.53251 274.181 9.37265 274.181 9.20661C274.181 9.04058 274.158 8.88003 274.132 8.72154L275.168 8.99872L275.347 9.02205C275.513 9.02196 275.674 8.96137 275.799 8.85157C275.924 8.74177 276.005 8.59025 276.027 8.42523C276.048 8.2602 276.009 8.09293 275.917 7.95458C275.824 7.81622 275.684 7.71621 275.524 7.67318L274.506 7.4008L276.191 7.05638C276.303 7.03339 276.408 6.98405 276.497 6.91244C276.587 6.84084 276.658 6.749 276.705 6.64451C276.752 6.54001 276.773 6.42585 276.768 6.31142C276.762 6.197 276.729 6.08558 276.672 5.98636C276.614 5.88714 276.534 5.80295 276.438 5.74073C276.342 5.67851 276.232 5.64003 276.118 5.62848C276.004 5.61693 275.889 5.63262 275.783 5.67428C275.676 5.71593 275.58 5.78235 275.504 5.86806L274.363 7.15381L274.637 6.13907C274.66 6.05203 274.666 5.96123 274.654 5.87185C274.643 5.78248 274.614 5.69628 274.569 5.61817C274.478 5.46042 274.328 5.34522 274.152 5.29791C273.976 5.2506 273.789 5.27505 273.631 5.36589C273.474 5.45673 273.358 5.60652 273.311 5.78229L273.032 6.82311C272.781 6.61576 272.499 6.4497 272.195 6.33117L272.951 5.57509C273.015 5.51139 273.066 5.43577 273.1 5.35254C273.135 5.26931 273.152 5.18011 273.152 5.09002C273.152 4.99993 273.135 4.91073 273.1 4.8275C273.066 4.74427 273.015 4.66865 272.951 4.60495C272.888 4.54125 272.812 4.49072 272.729 4.45624C272.646 4.42177 272.556 4.40403 272.466 4.40403C272.376 4.40403 272.287 4.42177 272.204 4.45624C272.121 4.49072 272.045 4.54125 271.981 4.60495L271.236 5.35005L271.78 3.71782C271.816 3.60929 271.826 3.49381 271.808 3.38088C271.791 3.26794 271.747 3.16077 271.68 3.06816C271.613 2.97555 271.525 2.90015 271.423 2.84815C271.321 2.79616 271.209 2.76904 271.094 2.76904C270.98 2.76904 270.867 2.79616 270.766 2.84815C270.664 2.90015 270.576 2.97555 270.509 3.06816C270.442 3.16077 270.398 3.26794 270.38 3.38088C270.363 3.49381 270.372 3.60929 270.408 3.71782L270.952 5.35005L270.207 4.60495C270.078 4.4763 269.904 4.40403 269.722 4.40403C269.54 4.40403 269.366 4.4763 269.237 4.60495C269.108 4.7336 269.036 4.90808 269.036 5.09002C269.036 5.27196 269.108 5.44644 269.237 5.57509L269.993 6.33117C269.69 6.45013 269.408 6.61615 269.157 6.82311L268.879 5.78367C268.857 5.6953 268.817 5.61221 268.763 5.53923C268.708 5.46625 268.64 5.40484 268.562 5.35858C268.483 5.31233 268.396 5.28215 268.306 5.26981C268.216 5.25748 268.124 5.26323 268.036 5.28672C267.948 5.31022 267.866 5.351 267.794 5.40668C267.722 5.46236 267.661 5.53183 267.616 5.61104C267.571 5.69025 267.543 5.77761 267.532 5.86803C267.521 5.95845 267.528 6.05012 267.553 6.13769L267.825 7.15655L266.685 5.86874C266.595 5.76885 266.48 5.69568 266.351 5.65737C266.223 5.61906 266.086 5.6171 265.957 5.65172C265.827 5.68633 265.71 5.75616 265.618 5.85346C265.526 5.95075 265.462 6.0717 265.435 6.20287C265.354 6.59395 265.607 6.97679 265.999 7.05707L267.682 7.40217L266.667 7.67387C266.506 7.7169 266.366 7.81691 266.274 7.95526C266.181 8.09362 266.142 8.26089 266.164 8.42591C266.186 8.59093 266.267 8.74246 266.392 8.85226C266.517 8.96206 266.677 9.02265 266.844 9.02274L267.022 8.99941L268.057 8.72223C268.027 8.882 268.01 9.04403 268.007 9.20661C268.007 9.37265 268.03 9.53251 268.055 9.69168L267.021 9.4145C266.934 9.39116 266.843 9.3852 266.754 9.39695C266.664 9.4087 266.578 9.43793 266.5 9.48297C266.422 9.52801 266.354 9.58799 266.299 9.65947C266.244 9.73095 266.204 9.81254 266.18 9.89957C266.157 9.98661 266.151 10.0774 266.163 10.1667C266.175 10.2561 266.204 10.3422 266.249 10.4203C266.294 10.4983 266.354 10.5667 266.425 10.6216C266.497 10.6765 266.578 10.7167 266.665 10.74L267.683 11.0124L265.999 11.3568C265.867 11.3833 265.745 11.4461 265.647 11.5381C265.549 11.6302 265.478 11.7478 265.444 11.8777C265.409 12.0076 265.411 12.1446 265.45 12.2733C265.489 12.4021 265.563 12.5174 265.664 12.6062C265.735 12.6693 265.817 12.7178 265.907 12.7489C265.997 12.78 266.092 12.7931 266.187 12.7874C266.282 12.7818 266.374 12.7574 266.46 12.7159C266.545 12.6743 266.622 12.6163 266.685 12.5452L267.827 11.2567L267.554 12.2748C267.531 12.3619 267.525 12.4527 267.536 12.542C267.548 12.6314 267.577 12.7175 267.622 12.7956C267.667 12.8736 267.727 12.942 267.799 12.9969C267.87 13.0517 267.952 13.092 268.039 13.1153L268.217 13.1386C268.368 13.1385 268.515 13.0886 268.635 12.9967C268.754 12.9048 268.84 12.776 268.879 12.6302L269.158 11.5908C269.409 11.7953 269.687 11.964 269.995 12.0821L269.238 12.8381C269.174 12.9018 269.123 12.9775 269.089 13.0607C269.054 13.1439 269.037 13.2331 269.037 13.3232C269.037 13.4133 269.054 13.5025 269.089 13.5857C269.123 13.669 269.174 13.7446 269.238 13.8083C269.366 13.9369 269.541 14.0092 269.723 14.0092C269.813 14.0092 269.902 13.9915 269.985 13.957C270.068 13.9225 270.144 13.872 270.208 13.8083L270.692 13.3232H270.865L270.408 14.6947C270.372 14.8032 270.363 14.9187 270.38 15.0317C270.398 15.1446 270.442 15.2518 270.509 15.3444C270.576 15.437 270.664 15.5124 270.766 15.5644C270.867 15.6164 270.98 15.6435 271.094 15.6435C271.209 15.6435 271.321 15.6164 271.423 15.5644C271.525 15.5124 271.613 15.437 271.68 15.3444C271.747 15.2518 271.791 15.1446 271.808 15.0317C271.826 14.9187 271.816 14.8032 271.78 14.6947L271.323 13.3232H271.496L271.981 13.8083C272.11 13.9369 272.284 14.0092 272.466 14.0092C272.648 14.0092 272.823 13.9369 272.951 13.8083C273.08 13.6796 273.152 13.5051 273.152 13.3232C273.152 13.1413 273.08 12.9668 272.951 12.8381L272.195 12.0814C272.499 11.9631 272.781 11.797 273.032 11.5894L273.311 12.6302C273.35 12.776 273.436 12.9048 273.556 12.9967C273.676 13.0886 273.822 13.1385 273.973 13.1386L274.151 13.1153C274.239 13.092 274.32 13.0517 274.392 12.9969C274.463 12.942 274.523 12.8736 274.568 12.7956C274.613 12.7175 274.642 12.6314 274.654 12.542C274.666 12.4527 274.66 12.3619 274.637 12.2748L274.364 11.2594L275.504 12.5452C275.58 12.6309 275.676 12.6973 275.783 12.7389C275.889 12.7806 276.004 12.7963 276.118 12.7847C276.232 12.7732 276.342 12.7347 276.438 12.6725C276.534 12.6103 276.614 12.5261 276.672 12.4269C276.729 12.3276 276.762 12.2162 276.768 12.1018C276.773 11.9874 276.752 11.8732 276.705 11.7687C276.658 11.6642 276.587 11.5724 276.497 11.5008C276.408 11.4292 276.303 11.3798 276.191 11.3568ZM271.094 10.9219C270.148 10.9219 269.379 10.1527 269.379 9.20661C269.379 8.26048 270.148 7.49137 271.094 7.49137C272.04 7.49137 272.809 8.26048 272.809 9.20661C272.809 10.1527 272.04 10.9219 271.094 10.9219Z" fill="#54B6E9"/>

    <defs>

        <clipPath id="clip0_524_1760">
            <rect width="16.4664" height="16.4664" fill="white" transform="translate(186.655 0.973145)"/>
        </clipPath>
        <clipPath id="clip1_524_1760">
            <rect width="16.4664" height="16.4664" fill="white" transform="translate(224.39 0.973145)"/>
        </clipPath>

    </defs>

</svg>